<svg xmlns="http://www.w3.org/2000/svg" xmlns:xlink="http://www.w3.org/1999/xlink" width="500" zoomAndPan="magnify" viewBox="0 0 375 374.999991" height="500" preserveAspectRatio="xMidYMid meet" version="1.0"><defs><g/></defs><g fill="rgb(15.289307%, 54.899597%, 63.529968%)" fill-opacity="1"><g transform="translate(66.452895, 217.124986)"><g><path d="M 27.210938 0 C 43.140625 0 57.976562 -9.464844 57.976562 -33.128906 C 57.976562 -53.96875 46.871094 -63.890625 28.851562 -63.890625 L 5.914062 -63.890625 L 5.914062 0 Z M 15.015625 -62.527344 L 24.664062 -62.527344 C 41.230469 -62.617188 48.875 -53.699219 48.875 -33.128906 C 48.875 -8.191406 38.679688 -1.363281 23.117188 -1.363281 L 15.015625 -1.363281 Z M 15.015625 -62.527344 "/></g></g></g><g fill="rgb(15.289307%, 54.899597%, 63.529968%)" fill-opacity="1"><g transform="translate(128.975306, 217.124986)"><g><path d="M 11.832031 0 L 23.117188 -28.214844 L 50.328125 -28.214844 L 52.332031 -23.117188 C 55.699219 -14.5625 56.792969 -7.007812 57.882812 0 L 62.890625 0 L 37.316406 -63.890625 L 28.214844 -63.890625 L 2.730469 0 Z M 36.679688 -62.34375 L 49.785156 -29.488281 L 23.570312 -29.488281 Z M 36.679688 -62.34375 "/></g></g></g><g fill="rgb(15.289307%, 54.899597%, 63.529968%)" fill-opacity="1"><g transform="translate(194.591993, 217.124986)"><g><path d="M 41.046875 -25.757812 C 39.953125 -28.03125 38.5 -29.304688 35.859375 -30.308594 C 45.960938 -32.035156 50.875 -40.5 50.875 -48.144531 C 50.875 -56.246094 45.050781 -63.890625 32.035156 -63.890625 L 5.914062 -63.890625 L 5.914062 0 L 15.015625 0 L 15.015625 -23.664062 C 19.113281 -27.394531 23.570312 -29.488281 26.300781 -29.488281 C 28.578125 -29.488281 30.214844 -28.304688 31.21875 -26.300781 L 44.597656 0 L 53.699219 0 Z M 30.308594 -31.398438 C 25.027344 -31.671875 19.566406 -28.761719 15.015625 -24.9375 L 15.015625 -62.617188 L 26.394531 -62.617188 C 37.40625 -62.617188 42.683594 -55.0625 42.683594 -46.597656 C 42.683594 -38.679688 38.132812 -31.035156 30.308594 -31.398438 Z M 30.308594 -31.398438 "/></g></g></g><g fill="rgb(15.289307%, 54.899597%, 63.529968%)" fill-opacity="1"><g transform="translate(252.19998, 217.124986)"><g><path d="M 15.015625 0 L 15.015625 -27.667969 L 28.488281 -27.667969 C 42.503906 -28.121094 52.515625 -34.949219 52.515625 -46.050781 C 52.515625 -55.0625 46.417969 -63.890625 29.671875 -63.890625 L 5.914062 -63.890625 L 5.914062 0 Z M 15.015625 -62.617188 L 24.847656 -62.617188 C 38.953125 -62.617188 43.960938 -53.96875 43.960938 -45.871094 C 43.960938 -37.589844 38.863281 -28.941406 24.300781 -28.941406 L 15.015625 -28.941406 Z M 15.015625 -62.617188 "/></g></g></g><g fill="rgb(15.289307%, 54.899597%, 63.529968%)" fill-opacity="1"><g transform="translate(63.882615, 231.939865)"><g><path d="M 1.371094 -4.898438 L 0.554688 -4.898438 L 0.554688 0 L 1.371094 0 C 2.589844 0 4.234375 -0.355469 4.234375 -2.449219 C 4.234375 -4.628906 2.5625 -4.898438 1.371094 -4.898438 Z M 1.371094 -0.796875 L 1.371094 -4.101562 C 1.371094 -4.101562 3.410156 -4.410156 3.410156 -2.449219 C 3.410156 -0.519531 1.371094 -0.796875 1.371094 -0.796875 Z M 1.371094 -0.796875 "/></g></g></g><g fill="rgb(15.289307%, 54.899597%, 63.529968%)" fill-opacity="1"><g transform="translate(69.335776, 231.939865)"><g><path d="M 1.371094 -4.082031 L 3.820312 -4.082031 L 3.820312 -4.898438 L 0.554688 -4.898438 L 0.554688 0 L 3.820312 0 L 3.820312 -0.820312 L 1.371094 -0.820312 L 1.371094 -2.042969 L 3.410156 -2.042969 L 3.410156 -2.855469 L 1.371094 -2.855469 Z M 1.371094 -4.082031 "/></g></g></g><g fill="rgb(15.289307%, 54.899597%, 63.529968%)" fill-opacity="1"><g transform="translate(74.270917, 231.939865)"><g><path d="M 2.84375 -0.75 C 1.9375 -0.75 1.21875 -1.398438 1.21875 -2.449219 C 1.21875 -3.4375 1.835938 -4.152344 2.84375 -4.152344 C 3.289062 -4.152344 3.703125 -3.96875 3.996094 -3.675781 L 4.570312 -4.25 C 4.128906 -4.695312 3.519531 -4.96875 2.84375 -4.96875 C 1.40625 -4.96875 0.386719 -3.925781 0.386719 -2.449219 C 0.386719 -0.910156 1.492188 0.0703125 2.84375 0.0703125 C 3.519531 0.0703125 4.128906 -0.203125 4.570312 -0.644531 L 3.996094 -1.226562 C 3.703125 -0.929688 3.289062 -0.75 2.84375 -0.75 Z M 2.84375 -0.75 "/></g></g></g><g fill="rgb(15.289307%, 54.899597%, 63.529968%)" fill-opacity="1"><g transform="translate(79.948085, 231.939865)"><g><path d="M 1.371094 -4.082031 L 3.820312 -4.082031 L 3.820312 -4.898438 L 0.554688 -4.898438 L 0.554688 0 L 3.820312 0 L 3.820312 -0.820312 L 1.371094 -0.820312 L 1.371094 -2.042969 L 3.410156 -2.042969 L 3.410156 -2.855469 L 1.371094 -2.855469 Z M 1.371094 -4.082031 "/></g></g></g><g fill="rgb(15.289307%, 54.899597%, 63.529968%)" fill-opacity="1"><g transform="translate(84.883225, 231.939865)"><g><path d="M 4.632812 0 L 4.632812 -4.898438 L 3.820312 -4.898438 L 3.820312 -1.414062 L 1.378906 -4.898438 L 0.554688 -4.898438 L 0.554688 0 L 1.371094 0 L 1.371094 -3.484375 L 3.808594 0 Z M 4.632812 0 "/></g></g></g><g fill="rgb(15.289307%, 54.899597%, 63.529968%)" fill-opacity="1"><g transform="translate(90.896402, 231.939865)"><g><path d="M 3.011719 -4.152344 L 3.011719 -4.898438 L 0.140625 -4.898438 L 0.140625 -4.152344 L 1.167969 -4.152344 L 1.167969 0 L 1.980469 0 L 1.980469 -4.152344 Z M 3.011719 -4.152344 "/></g></g></g><g fill="rgb(15.289307%, 54.899597%, 63.529968%)" fill-opacity="1"><g transform="translate(94.851515, 231.939865)"><g><path d="M 3.121094 0 L 4.082031 0 L 2.75 -2.128906 C 3.226562 -2.261719 3.828125 -2.605469 3.828125 -3.472656 C 3.828125 -4.898438 2.191406 -4.898438 2.191406 -4.898438 L 0.558594 -4.898438 L 0.558594 -4.082031 L 1.335938 -2.855469 L 0.558594 -2.855469 L 0.558594 0 L 1.378906 0 L 1.378906 -2.042969 L 1.847656 -2.042969 Z M 2.296875 -2.863281 L 1.53125 -4.082031 L 2.191406 -4.082031 C 2.191406 -4.082031 3.011719 -4.082031 3.011719 -3.472656 C 3.011719 -2.988281 2.511719 -2.882812 2.296875 -2.863281 Z M 2.296875 -2.863281 "/></g></g></g><g fill="rgb(15.289307%, 54.899597%, 63.529968%)" fill-opacity="1"><g transform="translate(99.954664, 231.939865)"><g><path d="M 2.8125 -0.566406 L 3.03125 0 L 3.914062 0 L 1.953125 -5.039062 L 0 0 L 0.882812 0 L 1.09375 -0.566406 Z M 1.359375 -1.273438 L 1.953125 -2.976562 L 2.546875 -1.273438 Z M 1.359375 -1.273438 "/></g></g></g><g fill="rgb(15.289307%, 54.899597%, 63.529968%)" fill-opacity="1"><g transform="translate(104.686806, 231.939865)"><g><path d="M 1.371094 -0.820312 L 1.371094 -4.898438 L 0.554688 -4.898438 L 0.554688 0 L 3.183594 0 L 3.183594 -0.820312 Z M 1.371094 -0.820312 "/></g></g></g><g fill="rgb(15.289307%, 54.899597%, 63.529968%)" fill-opacity="1"><g transform="translate(109.012928, 231.939865)"><g><path d="M 1.625 -4.152344 L 2.171875 -4.152344 L 2.171875 -4.898438 L 0.257812 -4.898438 L 0.257812 -4.152344 L 0.804688 -4.152344 L 0.804688 -0.75 L 0.230469 -0.75 L 0.230469 0 L 2.199219 0 L 2.199219 -0.75 L 1.625 -0.75 Z M 1.625 -4.152344 "/></g></g></g><g fill="rgb(15.289307%, 54.899597%, 63.529968%)" fill-opacity="1"><g transform="translate(112.282018, 231.939865)"><g><path d="M 3.078125 0 L 3.078125 -0.820312 L 1.441406 -0.820312 L 3.074219 -4.898438 L 0.222656 -4.898438 L 0.222656 -4.082031 L 1.867188 -4.082031 L 0.230469 0 Z M 3.078125 0 "/></g></g></g><g fill="rgb(15.289307%, 54.899597%, 63.529968%)" fill-opacity="1"><g transform="translate(116.426138, 231.939865)"><g><path d="M 1.371094 -4.082031 L 3.820312 -4.082031 L 3.820312 -4.898438 L 0.554688 -4.898438 L 0.554688 0 L 3.820312 0 L 3.820312 -0.820312 L 1.371094 -0.820312 L 1.371094 -2.042969 L 3.410156 -2.042969 L 3.410156 -2.855469 L 1.371094 -2.855469 Z M 1.371094 -4.082031 "/></g></g></g><g fill="rgb(15.289307%, 54.899597%, 63.529968%)" fill-opacity="1"><g transform="translate(121.361278, 231.939865)"><g><path d="M 1.371094 -4.898438 L 0.554688 -4.898438 L 0.554688 0 L 1.371094 0 C 2.589844 0 4.234375 -0.355469 4.234375 -2.449219 C 4.234375 -4.628906 2.5625 -4.898438 1.371094 -4.898438 Z M 1.371094 -0.796875 L 1.371094 -4.101562 C 1.371094 -4.101562 3.410156 -4.410156 3.410156 -2.449219 C 3.410156 -0.519531 1.371094 -0.796875 1.371094 -0.796875 Z M 1.371094 -0.796875 "/></g></g></g><g fill="rgb(15.289307%, 54.899597%, 63.529968%)" fill-opacity="1"><g transform="translate(126.814439, 231.939865)"><g/></g></g><g fill="rgb(15.289307%, 54.899597%, 63.529968%)" fill-opacity="1"><g transform="translate(130.04853, 231.939865)"><g><path d="M 2.8125 -0.566406 L 3.03125 0 L 3.914062 0 L 1.953125 -5.039062 L 0 0 L 0.882812 0 L 1.09375 -0.566406 Z M 1.359375 -1.273438 L 1.953125 -2.976562 L 2.546875 -1.273438 Z M 1.359375 -1.273438 "/></g></g></g><g fill="rgb(15.289307%, 54.899597%, 63.529968%)" fill-opacity="1"><g transform="translate(134.78067, 231.939865)"><g><path d="M 4.628906 -4.898438 L 0.554688 -4.898438 L 0.554688 -1.96875 C 0.554688 -1.917969 0.558594 -1.449219 0.796875 -0.972656 C 1.132812 -0.300781 1.769531 0.0703125 2.589844 0.0703125 C 3.410156 0.0703125 4.046875 -0.300781 4.382812 -0.972656 C 4.621094 -1.449219 4.628906 -1.917969 4.628906 -1.96875 Z M 3.640625 -1.316406 C 3.445312 -0.929688 3.101562 -0.75 2.589844 -0.75 C 2.085938 -0.75 1.742188 -0.929688 1.539062 -1.316406 C 1.371094 -1.632812 1.363281 -1.96875 1.363281 -1.96875 L 1.363281 -4.082031 L 3.816406 -4.082031 L 3.816406 -1.972656 C 3.816406 -1.96875 3.808594 -1.632812 3.640625 -1.316406 Z M 3.640625 -1.316406 "/></g></g></g><g fill="rgb(15.289307%, 54.899597%, 63.529968%)" fill-opacity="1"><g transform="translate(140.77985, 231.939865)"><g><path d="M 4.898438 -2.785156 L 3.261719 -2.785156 L 3.261719 -2.007812 L 4.082031 -2.007812 L 4.082031 -1.300781 C 3.78125 -0.960938 3.347656 -0.75 2.855469 -0.75 C 1.953125 -0.75 1.226562 -1.253906 1.226562 -2.449219 C 1.226562 -3.519531 1.953125 -4.152344 2.855469 -4.152344 C 3.304688 -4.152344 3.71875 -3.96875 4.011719 -3.675781 L 4.585938 -4.25 C 4.144531 -4.695312 3.535156 -4.96875 2.855469 -4.96875 C 1.503906 -4.96875 0.40625 -3.90625 0.40625 -2.449219 C 0.40625 -0.847656 1.433594 0.0703125 2.75 0.0703125 C 3.332031 0.0703125 3.746094 -0.0703125 4.144531 -0.441406 L 4.1875 0.0195312 L 4.898438 0.0195312 Z M 4.898438 -2.785156 "/></g></g></g><g fill="rgb(15.289307%, 54.899597%, 63.529968%)" fill-opacity="1"><g transform="translate(147.010034, 231.939865)"><g><path d="M 5.859375 0 L 5.859375 -4.90625 L 5.027344 -4.90625 L 3.242188 -1.09375 L 1.378906 -4.90625 L 0.546875 -4.90625 L 0.546875 0 L 1.363281 0 L 1.363281 -3.074219 L 2.863281 0 L 3.632812 0 L 5.039062 -3.011719 L 5.039062 0 Z M 5.859375 0 "/></g></g></g><g fill="rgb(15.289307%, 54.899597%, 63.529968%)" fill-opacity="1"><g transform="translate(154.241251, 231.939865)"><g><path d="M 1.371094 -4.082031 L 3.820312 -4.082031 L 3.820312 -4.898438 L 0.554688 -4.898438 L 0.554688 0 L 3.820312 0 L 3.820312 -0.820312 L 1.371094 -0.820312 L 1.371094 -2.042969 L 3.410156 -2.042969 L 3.410156 -2.855469 L 1.371094 -2.855469 Z M 1.371094 -4.082031 "/></g></g></g><g fill="rgb(15.289307%, 54.899597%, 63.529968%)" fill-opacity="1"><g transform="translate(159.176395, 231.939865)"><g><path d="M 4.632812 0 L 4.632812 -4.898438 L 3.820312 -4.898438 L 3.820312 -1.414062 L 1.378906 -4.898438 L 0.554688 -4.898438 L 0.554688 0 L 1.371094 0 L 1.371094 -3.484375 L 3.808594 0 Z M 4.632812 0 "/></g></g></g><g fill="rgb(15.289307%, 54.899597%, 63.529968%)" fill-opacity="1"><g transform="translate(165.189577, 231.939865)"><g><path d="M 3.011719 -4.152344 L 3.011719 -4.898438 L 0.140625 -4.898438 L 0.140625 -4.152344 L 1.167969 -4.152344 L 1.167969 0 L 1.980469 0 L 1.980469 -4.152344 Z M 3.011719 -4.152344 "/></g></g></g><g fill="rgb(15.289307%, 54.899597%, 63.529968%)" fill-opacity="1"><g transform="translate(169.144694, 231.939865)"><g><path d="M 1.371094 -4.082031 L 3.820312 -4.082031 L 3.820312 -4.898438 L 0.554688 -4.898438 L 0.554688 0 L 3.820312 0 L 3.820312 -0.820312 L 1.371094 -0.820312 L 1.371094 -2.042969 L 3.410156 -2.042969 L 3.410156 -2.855469 L 1.371094 -2.855469 Z M 1.371094 -4.082031 "/></g></g></g><g fill="rgb(15.289307%, 54.899597%, 63.529968%)" fill-opacity="1"><g transform="translate(174.079838, 231.939865)"><g><path d="M 1.371094 -4.898438 L 0.554688 -4.898438 L 0.554688 0 L 1.371094 0 C 2.589844 0 4.234375 -0.355469 4.234375 -2.449219 C 4.234375 -4.628906 2.5625 -4.898438 1.371094 -4.898438 Z M 1.371094 -0.796875 L 1.371094 -4.101562 C 1.371094 -4.101562 3.410156 -4.410156 3.410156 -2.449219 C 3.410156 -0.519531 1.371094 -0.796875 1.371094 -0.796875 Z M 1.371094 -0.796875 "/></g></g></g><g fill="rgb(15.289307%, 54.899597%, 63.529968%)" fill-opacity="1"><g transform="translate(179.533003, 231.939865)"><g/></g></g><g fill="rgb(15.289307%, 54.899597%, 63.529968%)" fill-opacity="1"><g transform="translate(182.767099, 231.939865)"><g><path d="M 3.121094 0 L 4.082031 0 L 2.75 -2.128906 C 3.226562 -2.261719 3.828125 -2.605469 3.828125 -3.472656 C 3.828125 -4.898438 2.191406 -4.898438 2.191406 -4.898438 L 0.558594 -4.898438 L 0.558594 -4.082031 L 1.335938 -2.855469 L 0.558594 -2.855469 L 0.558594 0 L 1.378906 0 L 1.378906 -2.042969 L 1.847656 -2.042969 Z M 2.296875 -2.863281 L 1.53125 -4.082031 L 2.191406 -4.082031 C 2.191406 -4.082031 3.011719 -4.082031 3.011719 -3.472656 C 3.011719 -2.988281 2.511719 -2.882812 2.296875 -2.863281 Z M 2.296875 -2.863281 "/></g></g></g><g fill="rgb(15.289307%, 54.899597%, 63.529968%)" fill-opacity="1"><g transform="translate(187.870253, 231.939865)"><g><path d="M 1.371094 -4.082031 L 3.820312 -4.082031 L 3.820312 -4.898438 L 0.554688 -4.898438 L 0.554688 0 L 3.820312 0 L 3.820312 -0.820312 L 1.371094 -0.820312 L 1.371094 -2.042969 L 3.410156 -2.042969 L 3.410156 -2.855469 L 1.371094 -2.855469 Z M 1.371094 -4.082031 "/></g></g></g><g fill="rgb(15.289307%, 54.899597%, 63.529968%)" fill-opacity="1"><g transform="translate(192.805397, 231.939865)"><g><path d="M 2.8125 -0.566406 L 3.03125 0 L 3.914062 0 L 1.953125 -5.039062 L 0 0 L 0.882812 0 L 1.09375 -0.566406 Z M 1.359375 -1.273438 L 1.953125 -2.976562 L 2.546875 -1.273438 Z M 1.359375 -1.273438 "/></g></g></g><g fill="rgb(15.289307%, 54.899597%, 63.529968%)" fill-opacity="1"><g transform="translate(197.537541, 231.939865)"><g><path d="M 1.371094 -0.820312 L 1.371094 -4.898438 L 0.554688 -4.898438 L 0.554688 0 L 3.183594 0 L 3.183594 -0.820312 Z M 1.371094 -0.820312 "/></g></g></g><g fill="rgb(15.289307%, 54.899597%, 63.529968%)" fill-opacity="1"><g transform="translate(201.863667, 231.939865)"><g><path d="M 1.625 -4.152344 L 2.171875 -4.152344 L 2.171875 -4.898438 L 0.257812 -4.898438 L 0.257812 -4.152344 L 0.804688 -4.152344 L 0.804688 -0.75 L 0.230469 -0.75 L 0.230469 0 L 2.199219 0 L 2.199219 -0.75 L 1.625 -0.75 Z M 1.625 -4.152344 "/></g></g></g><g fill="rgb(15.289307%, 54.899597%, 63.529968%)" fill-opacity="1"><g transform="translate(205.132763, 231.939865)"><g><path d="M 3.011719 -4.152344 L 3.011719 -4.898438 L 0.140625 -4.898438 L 0.140625 -4.152344 L 1.167969 -4.152344 L 1.167969 0 L 1.980469 0 L 1.980469 -4.152344 Z M 3.011719 -4.152344 "/></g></g></g><g fill="rgb(15.289307%, 54.899597%, 63.529968%)" fill-opacity="1"><g transform="translate(209.08788, 231.939865)"><g><path d="M 4.5 -4.898438 L 3.5 -4.898438 L 2.253906 -3.148438 L 1 -4.898438 L 0 -4.898438 L 1.839844 -2.316406 L 1.839844 0 L 2.660156 0 L 2.660156 -2.316406 Z M 4.5 -4.898438 "/></g></g></g><g fill="rgb(15.289307%, 54.899597%, 63.529968%)" fill-opacity="1"><g transform="translate(214.422036, 231.939865)"><g/></g></g><g fill="rgb(15.289307%, 54.899597%, 63.529968%)" fill-opacity="1"><g transform="translate(217.656132, 231.939865)"><g><path d="M 2.183594 -4.898438 L 0.554688 -4.898438 L 0.554688 -4.082031 L 1.328125 -2.855469 L 0.554688 -2.855469 L 0.554688 0 L 1.371094 0 L 1.371094 -2.042969 L 2.183594 -2.042969 C 2.183594 -2.042969 3.816406 -2.042969 3.816406 -3.472656 C 3.816406 -4.898438 2.183594 -4.898438 2.183594 -4.898438 Z M 2.289062 -2.863281 L 1.527344 -4.082031 L 2.183594 -4.082031 C 2.183594 -4.082031 3.003906 -4.082031 3.003906 -3.472656 C 3.003906 -2.996094 2.507812 -2.890625 2.289062 -2.863281 Z M 2.289062 -2.863281 "/></g></g></g><g fill="rgb(15.289307%, 54.899597%, 63.529968%)" fill-opacity="1"><g transform="translate(222.556277, 231.939865)"><g><path d="M 3.121094 0 L 4.082031 0 L 2.75 -2.128906 C 3.226562 -2.261719 3.828125 -2.605469 3.828125 -3.472656 C 3.828125 -4.898438 2.191406 -4.898438 2.191406 -4.898438 L 0.558594 -4.898438 L 0.558594 -4.082031 L 1.335938 -2.855469 L 0.558594 -2.855469 L 0.558594 0 L 1.378906 0 L 1.378906 -2.042969 L 1.847656 -2.042969 Z M 2.296875 -2.863281 L 1.53125 -4.082031 L 2.191406 -4.082031 C 2.191406 -4.082031 3.011719 -4.082031 3.011719 -3.472656 C 3.011719 -2.988281 2.511719 -2.882812 2.296875 -2.863281 Z M 2.296875 -2.863281 "/></g></g></g><g fill="rgb(15.289307%, 54.899597%, 63.529968%)" fill-opacity="1"><g transform="translate(227.659421, 231.939865)"><g><path d="M 2.21875 -1.328125 C 3.21875 -1.328125 4.039062 -2.148438 4.039062 -3.148438 C 4.039062 -4.152344 3.21875 -4.96875 2.21875 -4.96875 C 1.21875 -4.96875 0.398438 -4.152344 0.398438 -3.148438 C 0.398438 -2.148438 1.21875 -1.328125 2.21875 -1.328125 Z M 2.21875 -4.15625 C 2.777344 -4.15625 3.226562 -3.710938 3.226562 -3.148438 C 3.226562 -2.589844 2.777344 -2.140625 2.21875 -2.140625 C 1.660156 -2.140625 1.210938 -2.589844 1.210938 -3.148438 C 1.210938 -3.710938 1.660156 -4.15625 2.21875 -4.15625 Z M 3.816406 0 L 3.816406 -0.8125 L 0.582031 -0.8125 L 0.582031 0 Z M 3.816406 0 "/></g></g></g><g fill="rgb(15.289307%, 54.899597%, 63.529968%)" fill-opacity="1"><g transform="translate(232.944577, 231.939865)"><g><path d="M 2.289062 -4.90625 L 0.589844 -4.90625 L 0.589844 -4.15625 L 1.46875 -4.15625 L 1.46875 -1.429688 C 1.46875 -1.429688 1.46875 -0.820312 0.855469 -0.820312 L 0.238281 -0.820312 L 0.238281 0 L 0.855469 0 C 0.855469 0 2.289062 0 2.289062 -1.429688 Z M 2.289062 -4.90625 "/></g></g></g><g fill="rgb(15.289307%, 54.899597%, 63.529968%)" fill-opacity="1"><g transform="translate(236.60568, 231.939865)"><g><path d="M 1.371094 -4.082031 L 3.820312 -4.082031 L 3.820312 -4.898438 L 0.554688 -4.898438 L 0.554688 0 L 3.820312 0 L 3.820312 -0.820312 L 1.371094 -0.820312 L 1.371094 -2.042969 L 3.410156 -2.042969 L 3.410156 -2.855469 L 1.371094 -2.855469 Z M 1.371094 -4.082031 "/></g></g></g><g fill="rgb(15.289307%, 54.899597%, 63.529968%)" fill-opacity="1"><g transform="translate(241.540824, 231.939865)"><g><path d="M 2.84375 -0.75 C 1.9375 -0.75 1.21875 -1.398438 1.21875 -2.449219 C 1.21875 -3.4375 1.835938 -4.152344 2.84375 -4.152344 C 3.289062 -4.152344 3.703125 -3.96875 3.996094 -3.675781 L 4.570312 -4.25 C 4.128906 -4.695312 3.519531 -4.96875 2.84375 -4.96875 C 1.40625 -4.96875 0.386719 -3.925781 0.386719 -2.449219 C 0.386719 -0.910156 1.492188 0.0703125 2.84375 0.0703125 C 3.519531 0.0703125 4.128906 -0.203125 4.570312 -0.644531 L 3.996094 -1.226562 C 3.703125 -0.929688 3.289062 -0.75 2.84375 -0.75 Z M 2.84375 -0.75 "/></g></g></g><g fill="rgb(15.289307%, 54.899597%, 63.529968%)" fill-opacity="1"><g transform="translate(247.217987, 231.939865)"><g><path d="M 3.011719 -4.152344 L 3.011719 -4.898438 L 0.140625 -4.898438 L 0.140625 -4.152344 L 1.167969 -4.152344 L 1.167969 0 L 1.980469 0 L 1.980469 -4.152344 Z M 3.011719 -4.152344 "/></g></g></g><g fill="rgb(15.289307%, 54.899597%, 63.529968%)" fill-opacity="1"><g transform="translate(251.173095, 231.939865)"><g><path d="M 1.625 -4.152344 L 2.171875 -4.152344 L 2.171875 -4.898438 L 0.257812 -4.898438 L 0.257812 -4.152344 L 0.804688 -4.152344 L 0.804688 -0.75 L 0.230469 -0.75 L 0.230469 0 L 2.199219 0 L 2.199219 -0.75 L 1.625 -0.75 Z M 1.625 -4.152344 "/></g></g></g><g fill="rgb(15.289307%, 54.899597%, 63.529968%)" fill-opacity="1"><g transform="translate(254.44219, 231.939865)"><g><path d="M 2.21875 -1.328125 C 3.21875 -1.328125 4.039062 -2.148438 4.039062 -3.148438 C 4.039062 -4.152344 3.21875 -4.96875 2.21875 -4.96875 C 1.21875 -4.96875 0.398438 -4.152344 0.398438 -3.148438 C 0.398438 -2.148438 1.21875 -1.328125 2.21875 -1.328125 Z M 2.21875 -4.15625 C 2.777344 -4.15625 3.226562 -3.710938 3.226562 -3.148438 C 3.226562 -2.589844 2.777344 -2.140625 2.21875 -2.140625 C 1.660156 -2.140625 1.210938 -2.589844 1.210938 -3.148438 C 1.210938 -3.710938 1.660156 -4.15625 2.21875 -4.15625 Z M 3.816406 0 L 3.816406 -0.8125 L 0.582031 -0.8125 L 0.582031 0 Z M 3.816406 0 "/></g></g></g><g fill="rgb(15.289307%, 54.899597%, 63.529968%)" fill-opacity="1"><g transform="translate(259.727346, 231.939865)"><g><path d="M 4.632812 0 L 4.632812 -4.898438 L 3.820312 -4.898438 L 3.820312 -1.414062 L 1.378906 -4.898438 L 0.554688 -4.898438 L 0.554688 0 L 1.371094 0 L 1.371094 -3.484375 L 3.808594 0 Z M 4.632812 0 "/></g></g></g><g fill="rgb(15.289307%, 54.899597%, 63.529968%)" fill-opacity="1"><g transform="translate(265.740528, 231.939865)"><g/></g></g><g fill="rgb(15.289307%, 54.899597%, 63.529968%)" fill-opacity="1"><g transform="translate(268.974624, 231.939865)"><g><path d="M 2.183594 -4.898438 L 0.554688 -4.898438 L 0.554688 -4.082031 L 1.328125 -2.855469 L 0.554688 -2.855469 L 0.554688 0 L 1.371094 0 L 1.371094 -2.042969 L 2.183594 -2.042969 C 2.183594 -2.042969 3.816406 -2.042969 3.816406 -3.472656 C 3.816406 -4.898438 2.183594 -4.898438 2.183594 -4.898438 Z M 2.289062 -2.863281 L 1.527344 -4.082031 L 2.183594 -4.082031 C 2.183594 -4.082031 3.003906 -4.082031 3.003906 -3.472656 C 3.003906 -2.996094 2.507812 -2.890625 2.289062 -2.863281 Z M 2.289062 -2.863281 "/></g></g></g><g fill="rgb(15.289307%, 54.899597%, 63.529968%)" fill-opacity="1"><g transform="translate(273.874768, 231.939865)"><g><path d="M 1.371094 -0.820312 L 1.371094 -4.898438 L 0.554688 -4.898438 L 0.554688 0 L 3.183594 0 L 3.183594 -0.820312 Z M 1.371094 -0.820312 "/></g></g></g><g fill="rgb(15.289307%, 54.899597%, 63.529968%)" fill-opacity="1"><g transform="translate(278.200895, 231.939865)"><g><path d="M 2.8125 -0.566406 L 3.03125 0 L 3.914062 0 L 1.953125 -5.039062 L 0 0 L 0.882812 0 L 1.09375 -0.566406 Z M 1.359375 -1.273438 L 1.953125 -2.976562 L 2.546875 -1.273438 Z M 1.359375 -1.273438 "/></g></g></g><g fill="rgb(15.289307%, 54.899597%, 63.529968%)" fill-opacity="1"><g transform="translate(282.933039, 231.939865)"><g><path d="M 3.011719 -4.152344 L 3.011719 -4.898438 L 0.140625 -4.898438 L 0.140625 -4.152344 L 1.167969 -4.152344 L 1.167969 0 L 1.980469 0 L 1.980469 -4.152344 Z M 3.011719 -4.152344 "/></g></g></g><g fill="rgb(15.289307%, 54.899597%, 63.529968%)" fill-opacity="1"><g transform="translate(286.888147, 231.939865)"><g><path d="M 1.371094 -4.082031 L 3.820312 -4.082031 L 3.820312 -4.898438 L 0.554688 -4.898438 L 0.554688 0 L 1.371094 0 L 1.371094 -2.042969 L 3.410156 -2.042969 L 3.410156 -2.855469 L 1.371094 -2.855469 Z M 1.371094 -4.082031 "/></g></g></g><g fill="rgb(15.289307%, 54.899597%, 63.529968%)" fill-opacity="1"><g transform="translate(291.767285, 231.939865)"><g><path d="M 2.21875 -1.328125 C 3.21875 -1.328125 4.039062 -2.148438 4.039062 -3.148438 C 4.039062 -4.152344 3.21875 -4.96875 2.21875 -4.96875 C 1.21875 -4.96875 0.398438 -4.152344 0.398438 -3.148438 C 0.398438 -2.148438 1.21875 -1.328125 2.21875 -1.328125 Z M 2.21875 -4.15625 C 2.777344 -4.15625 3.226562 -3.710938 3.226562 -3.148438 C 3.226562 -2.589844 2.777344 -2.140625 2.21875 -2.140625 C 1.660156 -2.140625 1.210938 -2.589844 1.210938 -3.148438 C 1.210938 -3.710938 1.660156 -4.15625 2.21875 -4.15625 Z M 3.816406 0 L 3.816406 -0.8125 L 0.582031 -0.8125 L 0.582031 0 Z M 3.816406 0 "/></g></g></g><g fill="rgb(15.289307%, 54.899597%, 63.529968%)" fill-opacity="1"><g transform="translate(297.05244, 231.939865)"><g><path d="M 3.121094 0 L 4.082031 0 L 2.75 -2.128906 C 3.226562 -2.261719 3.828125 -2.605469 3.828125 -3.472656 C 3.828125 -4.898438 2.191406 -4.898438 2.191406 -4.898438 L 0.558594 -4.898438 L 0.558594 -4.082031 L 1.335938 -2.855469 L 0.558594 -2.855469 L 0.558594 0 L 1.378906 0 L 1.378906 -2.042969 L 1.847656 -2.042969 Z M 2.296875 -2.863281 L 1.53125 -4.082031 L 2.191406 -4.082031 C 2.191406 -4.082031 3.011719 -4.082031 3.011719 -3.472656 C 3.011719 -2.988281 2.511719 -2.882812 2.296875 -2.863281 Z M 2.296875 -2.863281 "/></g></g></g><g fill="rgb(15.289307%, 54.899597%, 63.529968%)" fill-opacity="1"><g transform="translate(302.155585, 231.939865)"><g><path d="M 5.859375 0 L 5.859375 -4.90625 L 5.027344 -4.90625 L 3.242188 -1.09375 L 1.378906 -4.90625 L 0.546875 -4.90625 L 0.546875 0 L 1.363281 0 L 1.363281 -3.074219 L 2.863281 0 L 3.632812 0 L 5.039062 -3.011719 L 5.039062 0 Z M 5.859375 0 "/></g></g></g></svg>