<svg xmlns="http://www.w3.org/2000/svg" xmlns:xlink="http://www.w3.org/1999/xlink" viewBox="0 0 360.21 382.33"><defs><style>.cls-1,.cls-3,.cls-50,.cls-51,.cls-52,.cls-53,.cls-54,.cls-55,.cls-56,.cls-57,.cls-58,.cls-59{fill:none;}.cls-2{isolation:isolate;}.cls-3{stroke-linecap:round;mix-blend-mode:hard-light;stroke:url(#linear-gradient);}.cls-3,.cls-50,.cls-51,.cls-52,.cls-53,.cls-54,.cls-55,.cls-56,.cls-57,.cls-58,.cls-59{stroke-miterlimit:10;}.cls-3,.cls-50,.cls-55{stroke-width:1.05px;}.cls-3,.cls-6,.cls-8{opacity:0.5;}.cls-4{opacity:0.1;fill:url(#linear-gradient-2);}.cls-5{opacity:0.2;fill:url(#linear-gradient-3);}.cls-6{fill:url(#linear-gradient-4);}.cls-7{clip-path:url(#clip-path);}.cls-9{fill:url(#linear-gradient-5);}.cls-10{fill:url(#linear-gradient-6);}.cls-11{fill:url(#linear-gradient-7);}.cls-12{fill:url(#linear-gradient-8);}.cls-13{fill:url(#linear-gradient-9);}.cls-14{fill:url(#linear-gradient-10);}.cls-15{opacity:0.7;}.cls-16{fill:url(#linear-gradient-11);}.cls-17{fill:url(#linear-gradient-12);}.cls-18{fill:url(#linear-gradient-13);}.cls-19{fill:url(#linear-gradient-14);}.cls-20{fill:url(#linear-gradient-15);}.cls-21{fill:url(#linear-gradient-16);}.cls-22{fill:url(#linear-gradient-17);}.cls-23{fill:url(#linear-gradient-18);}.cls-24{fill:url(#linear-gradient-19);}.cls-25{fill:url(#linear-gradient-20);}.cls-26{fill:url(#linear-gradient-21);}.cls-27{fill:url(#linear-gradient-22);}.cls-28{fill:url(#linear-gradient-23);}.cls-29{fill:url(#linear-gradient-24);}.cls-30{fill:url(#linear-gradient-25);}.cls-31{fill:url(#linear-gradient-26);}.cls-32{fill:url(#linear-gradient-27);}.cls-33{opacity:0.4;}.cls-34{fill:url(#linear-gradient-28);}.cls-35{fill:url(#linear-gradient-29);}.cls-36{fill:url(#linear-gradient-30);}.cls-37{fill:url(#linear-gradient-31);}.cls-38{fill:url(#linear-gradient-32);}.cls-39{fill:url(#linear-gradient-33);}.cls-40{fill:url(#linear-gradient-34);}.cls-41{fill:url(#linear-gradient-35);}.cls-42{fill:url(#linear-gradient-36);}.cls-43{fill:url(#linear-gradient-37);}.cls-44{fill:url(#linear-gradient-38);}.cls-45{fill:url(#linear-gradient-39);}.cls-46{fill:url(#linear-gradient-40);}.cls-47{fill:url(#linear-gradient-41);}.cls-48{fill:url(#linear-gradient-42);}.cls-49{fill:#77dee8;}.cls-50,.cls-51,.cls-52,.cls-53,.cls-54,.cls-55,.cls-56,.cls-57,.cls-58,.cls-59{mix-blend-mode:screen;}.cls-50{stroke:url(#linear-gradient-43);}.cls-51,.cls-56{stroke-width:0.86px;}.cls-51{stroke:url(#linear-gradient-44);}.cls-52,.cls-57{stroke-width:0.69px;}.cls-52{stroke:url(#linear-gradient-45);}.cls-53,.cls-58{stroke-width:0.55px;}.cls-53{stroke:url(#linear-gradient-46);}.cls-54,.cls-59{stroke-width:0.42px;}.cls-54{stroke:url(#linear-gradient-47);}.cls-55{stroke:url(#linear-gradient-48);}.cls-56{stroke:url(#linear-gradient-49);}.cls-57{stroke:url(#linear-gradient-50);}.cls-58{stroke:url(#linear-gradient-51);}.cls-59{stroke:url(#linear-gradient-52);}.cls-60{fill:#ffdfc5;}.cls-61{fill:#fff1e6;}.cls-62{fill:#2f229b;}.cls-63,.cls-70,.cls-73{mix-blend-mode:multiply;}.cls-63,.cls-73{opacity:0.8;}.cls-63{fill:url(#linear-gradient-53);}.cls-64{fill:url(#linear-gradient-54);}.cls-65{fill:url(#linear-gradient-55);}.cls-66{fill:#fff;}.cls-67{fill:url(#linear-gradient-56);}.cls-68{fill:url(#linear-gradient-57);}.cls-69{fill:url(#linear-gradient-58);}.cls-70{opacity:0.25;fill:url(#linear-gradient-59);}.cls-71{fill:#13b5fd;}.cls-72{fill:#bbf5ff;}.cls-73{fill:url(#linear-gradient-60);}.cls-74{fill:url(#radial-gradient);}.cls-75{fill:url(#radial-gradient-2);}.cls-76{fill:url(#radial-gradient-3);}.cls-77{fill:url(#radial-gradient-4);}.cls-78{fill:url(#radial-gradient-5);}.cls-79{fill:url(#radial-gradient-6);}.cls-80{fill:url(#radial-gradient-7);}.cls-81{fill:url(#radial-gradient-8);}.cls-82{fill:url(#radial-gradient-9);}.cls-83{fill:url(#radial-gradient-10);}.cls-84{fill:url(#radial-gradient-11);}.cls-85{fill:url(#radial-gradient-12);}.cls-86{fill:url(#linear-gradient-61);}.cls-87{fill:url(#linear-gradient-62);}.cls-88{fill:url(#linear-gradient-63);}.cls-89{opacity:0.3;}.cls-90{fill:url(#linear-gradient-64);}.cls-91{fill:url(#linear-gradient-65);}.cls-92{fill:url(#linear-gradient-66);}.cls-93{fill:url(#linear-gradient-67);}.cls-94{fill:url(#linear-gradient-68);}.cls-95{fill:url(#linear-gradient-69);}.cls-96{fill:url(#linear-gradient-70);}.cls-97{fill:url(#linear-gradient-71);}.cls-98{fill:url(#linear-gradient-72);}.cls-99{fill:url(#linear-gradient-73);}.cls-100{fill:url(#linear-gradient-74);}.cls-101{fill:url(#linear-gradient-75);}.cls-102{fill:url(#linear-gradient-76);}.cls-103{fill:url(#linear-gradient-77);}.cls-104{fill:url(#linear-gradient-78);}.cls-105{fill:url(#linear-gradient-79);}.cls-106{fill:url(#linear-gradient-80);}.cls-107{fill:url(#linear-gradient-81);}.cls-108{fill:url(#linear-gradient-82);}.cls-109{fill:url(#linear-gradient-83);}.cls-110{fill:url(#linear-gradient-84);}.cls-111{fill:url(#linear-gradient-85);}.cls-112{fill:url(#linear-gradient-86);}.cls-113{fill:url(#linear-gradient-87);}.cls-114{fill:url(#linear-gradient-88);}.cls-115{fill:url(#linear-gradient-89);}.cls-116{fill:url(#linear-gradient-90);}.cls-117{fill:url(#linear-gradient-91);}.cls-118{fill:url(#linear-gradient-92);}.cls-119{fill:url(#linear-gradient-93);}.cls-120{fill:url(#linear-gradient-94);}.cls-121{fill:url(#linear-gradient-95);}.cls-122{fill:url(#linear-gradient-96);}</style><linearGradient id="linear-gradient" x1="201.22" y1="258.11" x2="175.04" y2="216.2" gradientTransform="matrix(1, 0.05, 0, 1, 0, -10.24)" gradientUnits="userSpaceOnUse"><stop offset="0" stop-color="aqua" stop-opacity="0.3"/><stop offset="1" stop-color="#9affff"/></linearGradient><linearGradient id="linear-gradient-2" x1="182.15" y1="180.81" x2="123.36" y2="86.72" gradientTransform="matrix(1, 0.05, 0, 1, 0, -10.24)" gradientUnits="userSpaceOnUse"><stop offset="0" stop-color="aqua" stop-opacity="0"/><stop offset="1" stop-color="#9affff"/></linearGradient><linearGradient id="linear-gradient-3" x1="195.28" y1="186.48" x2="136.49" y2="92.4" xlink:href="#linear-gradient-2"/><linearGradient id="linear-gradient-4" x1="208.41" y1="192.16" x2="149.62" y2="98.07" xlink:href="#linear-gradient"/><clipPath id="clip-path"><path class="cls-1" d="M315.81,185.33c-135.34,11.43-225.55,70.21-254,91.34-3.91,2.9-9.67-.2-9.67-5.19V149a11.32,11.32,0,0,1,4.3-9c20.73-16.26,115.47-84.26,263.08-95.72a6.35,6.35,0,0,1,6.76,6.27V174A11.27,11.27,0,0,1,315.81,185.33Z"/></clipPath><linearGradient id="linear-gradient-5" x1="62.28" y1="196.17" x2="62.28" y2="190.3" gradientTransform="matrix(1, -0.73, 0, 1, 0, 71.5)" gradientUnits="userSpaceOnUse"><stop offset="0" stop-color="#0095e1"/><stop offset="1" stop-color="#72ffff"/></linearGradient><linearGradient id="linear-gradient-6" x1="62.28" y1="359.15" x2="62.28" y2="86.53" xlink:href="#linear-gradient-5"/><linearGradient id="linear-gradient-7" x1="62.28" y1="190.82" x2="62.28" y2="186.86" xlink:href="#linear-gradient-5"/><linearGradient id="linear-gradient-8" x1="62.28" y1="193.73" x2="62.28" y2="187.31" xlink:href="#linear-gradient-5"/><linearGradient id="linear-gradient-9" x1="287.49" y1="200.43" x2="287.49" y2="88.16" gradientTransform="matrix(1, -0.18, 0, 1, 0, 60.46)" xlink:href="#linear-gradient-5"/><linearGradient id="linear-gradient-10" x1="292.22" y1="168.19" x2="292.22" y2="73.47" gradientTransform="matrix(1, -0.18, 0, 1, 0, 60.46)" xlink:href="#linear-gradient-5"/><linearGradient id="linear-gradient-11" x1="141.94" y1="238.78" x2="141.94" y2="100.27" gradientTransform="matrix(1, -0.46, 0, 1, 0, 79.72)" xlink:href="#linear-gradient-5"/><linearGradient id="linear-gradient-12" x1="146.19" y1="249.23" x2="146.19" y2="141.36" gradientTransform="matrix(1, 0.05, 0, 1, 0, -10.24)" gradientUnits="userSpaceOnUse"><stop offset="0" stop-color="#006fe1"/><stop offset="1" stop-color="#72ffff"/></linearGradient><linearGradient id="linear-gradient-13" x1="141.71" y1="200.61" x2="141.71" y2="108.88" gradientTransform="matrix(1, -0.46, 0, 1, 0, 79.72)" xlink:href="#linear-gradient-5"/><linearGradient id="linear-gradient-14" x1="249.51" y1="229.42" x2="249.51" y2="45.17" gradientTransform="matrix(1, -0.22, 0, 1, 0, 62.39)" xlink:href="#linear-gradient-5"/><linearGradient id="linear-gradient-15" x1="249.45" y1="229.44" x2="249.45" y2="45.16" gradientTransform="matrix(1, -0.22, 0, 1, 0, 62.39)" xlink:href="#linear-gradient-5"/><linearGradient id="linear-gradient-16" x1="249.51" y1="229.42" x2="249.51" y2="45.17" gradientTransform="matrix(1, -0.22, 0, 1, 0, 62.39)" xlink:href="#linear-gradient-5"/><linearGradient id="linear-gradient-17" x1="241.78" y1="179.44" x2="241.78" y2="98.44" gradientTransform="matrix(1, -0.22, 0, 1, 0, 62.39)" xlink:href="#linear-gradient-5"/><linearGradient id="linear-gradient-18" x1="249.38" y1="229.43" x2="249.38" y2="45.16" gradientTransform="matrix(1, -0.22, 0, 1, 0, 62.39)" xlink:href="#linear-gradient-5"/><linearGradient id="linear-gradient-19" x1="257.26" y1="113.09" x2="257.26" y2="54.82" gradientTransform="matrix(1, -0.22, 0, 1, 0, 62.39)" xlink:href="#linear-gradient-5"/><linearGradient id="linear-gradient-20" x1="249.53" y1="209.95" x2="249.53" y2="147.33" gradientTransform="matrix(1, -0.22, 0, 1, 0, 62.39)" xlink:href="#linear-gradient-5"/><linearGradient id="linear-gradient-21" x1="317.86" y1="117.43" x2="317.86" y2="113.93" gradientTransform="matrix(1, -0.12, 0, 1, 0, 47.98)" xlink:href="#linear-gradient-5"/><linearGradient id="linear-gradient-22" x1="317.86" y1="192.48" x2="317.86" y2="81.45" gradientTransform="matrix(1, -0.12, 0, 1, 0, 47.98)" xlink:href="#linear-gradient-5"/><linearGradient id="linear-gradient-23" x1="317.86" y1="113.74" x2="317.86" y2="111.82" gradientTransform="matrix(1, -0.12, 0, 1, 0, 47.98)" xlink:href="#linear-gradient-5"/><linearGradient id="linear-gradient-24" x1="317.86" y1="114.89" x2="317.86" y2="112.78" gradientTransform="matrix(1, -0.12, 0, 1, 0, 47.98)" xlink:href="#linear-gradient-5"/><linearGradient id="linear-gradient-25" x1="80.66" y1="256.77" x2="80.66" y2="88.34" gradientTransform="matrix(1, -0.6, 0, 1, 0, 71.12)" xlink:href="#linear-gradient-5"/><linearGradient id="linear-gradient-26" x1="85.64" y1="204.51" x2="85.64" y2="89.45" gradientTransform="matrix(1, -0.6, 0, 1, 0, 71.12)" xlink:href="#linear-gradient-5"/><linearGradient id="linear-gradient-27" x1="90.99" y1="280.67" x2="90.99" y2="26.05" gradientTransform="matrix(1, -0.6, 0, 1, 0, 71.12)" xlink:href="#linear-gradient-5"/><linearGradient id="linear-gradient-28" x1="194.86" y1="219.35" x2="194.86" y2="-179.89" gradientTransform="matrix(1, -0.36, 0, 1, 0, 78.86)" gradientUnits="userSpaceOnUse"><stop offset="0" stop-color="#72ffff"/><stop offset="1" stop-color="#0095e1"/></linearGradient><linearGradient id="linear-gradient-29" x1="183.06" y1="230.51" x2="183.06" y2="85.81" gradientTransform="matrix(1, -0.36, 0, 1, 0, 78.86)" xlink:href="#linear-gradient-5"/><linearGradient id="linear-gradient-30" x1="202.57" y1="226.44" x2="202.57" y2="31.02" gradientTransform="matrix(1, -0.36, 0, 1, 0, 78.86)" xlink:href="#linear-gradient-12"/><linearGradient id="linear-gradient-31" x1="111.8" y1="246.85" x2="111.8" y2="142.64" gradientTransform="matrix(1, -0.65, 0, 1, 0, 94.83)" xlink:href="#linear-gradient-5"/><linearGradient id="linear-gradient-32" x1="116.05" y1="219.66" x2="116.05" y2="104.27" gradientTransform="matrix(1, -0.65, 0, 1, 0, 94.83)" xlink:href="#linear-gradient-5"/><linearGradient id="linear-gradient-33" x1="304.88" y1="173.49" x2="304.88" y2="119.58" gradientTransform="matrix(1, -0.12, 0, 1, 0, 45.99)" xlink:href="#linear-gradient-5"/><linearGradient id="linear-gradient-34" x1="218.64" y1="258.4" x2="218.64" y2="156.6" gradientTransform="matrix(1, -0.22, 0, 1, 0, 55.21)" xlink:href="#linear-gradient-5"/><linearGradient id="linear-gradient-35" x1="225.03" y1="257.55" x2="225.03" y2="119.74" gradientTransform="matrix(1, -0.22, 0, 1, 0, 55.21)" xlink:href="#linear-gradient-5"/><linearGradient id="linear-gradient-36" x1="269.92" y1="177.39" x2="269.92" y2="130.58" gradientTransform="matrix(1, -0.18, 0, 1, 0, 55.83)" xlink:href="#linear-gradient-5"/><linearGradient id="linear-gradient-37" x1="273.75" y1="174" x2="273.75" y2="87.6" gradientTransform="matrix(1, -0.18, 0, 1, 0, 55.83)" xlink:href="#linear-gradient-5"/><linearGradient id="linear-gradient-38" x1="165.03" y1="227.67" x2="165.03" y2="113.35" gradientTransform="matrix(1, -0.22, 0, 1, 0, 42.73)" xlink:href="#linear-gradient-5"/><linearGradient id="linear-gradient-39" x1="171.4" y1="184.12" x2="171.4" y2="97.62" gradientTransform="matrix(1, -0.22, 0, 1, 0, 42.73)" xlink:href="#linear-gradient-5"/><linearGradient id="linear-gradient-40" x1="234.24" y1="201.64" x2="234.24" y2="126.13" gradientTransform="matrix(1, -0.27, 0, 1, 0, 74.35)" xlink:href="#linear-gradient-5"/><linearGradient id="linear-gradient-41" x1="238.31" y1="180.72" x2="238.31" y2="123.51" gradientTransform="matrix(1, -0.27, 0, 1, 0, 74.35)" xlink:href="#linear-gradient-5"/><linearGradient id="linear-gradient-42" x1="242.69" y1="182.29" x2="242.69" y2="144.86" gradientTransform="matrix(1, -0.27, 0, 1, 0, 74.35)" xlink:href="#linear-gradient-5"/><linearGradient id="linear-gradient-43" x1="208.54" y1="143.87" x2="208.54" y2="99.67" gradientTransform="matrix(1, 0, 0, 1, 0, 0)" xlink:href="#linear-gradient-5"/><linearGradient id="linear-gradient-44" x1="208.54" y1="139.92" x2="208.54" y2="103.61" gradientTransform="matrix(1, 0, 0, 1, 0, 0)" xlink:href="#linear-gradient-5"/><linearGradient id="linear-gradient-45" x1="208.54" y1="136.44" x2="208.54" y2="107.09" gradientTransform="matrix(1, 0, 0, 1, 0, 0)" xlink:href="#linear-gradient-5"/><linearGradient id="linear-gradient-46" x1="208.54" y1="133.34" x2="208.54" y2="110.19" gradientTransform="matrix(1, 0, 0, 1, 0, 0)" xlink:href="#linear-gradient-5"/><linearGradient id="linear-gradient-47" x1="208.54" y1="130.59" x2="208.54" y2="112.94" gradientTransform="matrix(1, 0, 0, 1, 0, 0)" xlink:href="#linear-gradient-5"/><linearGradient id="linear-gradient-48" x1="151.46" y1="199.33" x2="151.46" y2="155.13" gradientTransform="matrix(1, 0, 0, 1, 0, 0)" xlink:href="#linear-gradient-5"/><linearGradient id="linear-gradient-49" x1="151.46" y1="195.38" x2="151.46" y2="159.08" gradientTransform="matrix(1, 0, 0, 1, 0, 0)" xlink:href="#linear-gradient-5"/><linearGradient id="linear-gradient-50" x1="151.46" y1="191.91" x2="151.46" y2="162.56" gradientTransform="matrix(1, 0, 0, 1, 0, 0)" xlink:href="#linear-gradient-5"/><linearGradient id="linear-gradient-51" x1="151.46" y1="188.81" x2="151.46" y2="165.66" gradientTransform="matrix(1, 0, 0, 1, 0, 0)" xlink:href="#linear-gradient-5"/><linearGradient id="linear-gradient-52" x1="151.46" y1="186.05" x2="151.46" y2="168.41" gradientTransform="matrix(1, 0, 0, 1, 0, 0)" xlink:href="#linear-gradient-5"/><linearGradient id="linear-gradient-53" x1="285.66" y1="330.29" x2="285.66" y2="272.64" gradientUnits="userSpaceOnUse"><stop offset="0" stop-color="#008ae8"/><stop offset="1" stop-color="#0024b3"/></linearGradient><linearGradient id="linear-gradient-54" x1="206.09" y1="141.04" x2="235.4" y2="141.04" gradientUnits="userSpaceOnUse"><stop offset="0" stop-color="#13fffd"/><stop offset="1" stop-color="#9cffff"/></linearGradient><linearGradient id="linear-gradient-55" x1="212.02" y1="119.48" x2="224.32" y2="128.45" gradientUnits="userSpaceOnUse"><stop offset="0" stop-color="#004065"/><stop offset="1" stop-color="#004fe8"/></linearGradient><linearGradient id="linear-gradient-56" x1="243.31" y1="250.82" x2="250.41" y2="214.31" gradientUnits="userSpaceOnUse"><stop offset="0" stop-color="#bbf5ff" stop-opacity="0"/><stop offset="1" stop-color="#bbf5ff"/></linearGradient><linearGradient id="linear-gradient-57" x1="148.98" y1="196.45" x2="178.3" y2="196.45" xlink:href="#linear-gradient-54"/><linearGradient id="linear-gradient-58" x1="154.91" y1="174.89" x2="167.21" y2="183.86" xlink:href="#linear-gradient-55"/><linearGradient id="linear-gradient-59" x1="299.75" y1="161.83" x2="290.21" y2="132.7" gradientUnits="userSpaceOnUse"><stop offset="0" stop-color="#1a0e7e"/><stop offset="1" stop-color="#2f229b"/></linearGradient><linearGradient id="linear-gradient-60" x1="258.54" y1="327.5" x2="258.54" y2="293.54" xlink:href="#linear-gradient-53"/><radialGradient id="radial-gradient" cx="134.61" cy="44.26" r="4.73" gradientUnits="userSpaceOnUse"><stop offset="0" stop-color="#bff"/><stop offset="0.11" stop-color="#b5fcff"/><stop offset="0.27" stop-color="#a5f4ff"/><stop offset="0.44" stop-color="#89e7ff"/><stop offset="0.62" stop-color="#63d4ff"/><stop offset="0.82" stop-color="#33bdff"/><stop offset="1" stop-color="#00a4ff"/></radialGradient><radialGradient id="radial-gradient-2" cx="139.01" cy="288.76" r="3.09" gradientUnits="userSpaceOnUse"><stop offset="0" stop-color="#feff93"/><stop offset="1" stop-color="#fe456d"/></radialGradient><radialGradient id="radial-gradient-3" cx="7.61" cy="239.62" r="3.09" xlink:href="#radial-gradient"/><radialGradient id="radial-gradient-4" cx="32.85" cy="261.73" r="1.85" xlink:href="#radial-gradient"/><radialGradient id="radial-gradient-5" cx="24.96" cy="16.77" r="1.85" xlink:href="#radial-gradient"/><radialGradient id="radial-gradient-6" cx="320.08" cy="204.66" r="1.85" xlink:href="#radial-gradient"/><radialGradient id="radial-gradient-7" cx="202.71" cy="276.53" r="1.85" xlink:href="#radial-gradient"/><radialGradient id="radial-gradient-8" cx="35.62" cy="62.31" r="4" xlink:href="#radial-gradient"/><radialGradient id="radial-gradient-9" cx="212.45" cy="52.33" r="4" xlink:href="#radial-gradient"/><radialGradient id="radial-gradient-10" cx="358.37" cy="126.09" r="2.18" xlink:href="#radial-gradient"/><radialGradient id="radial-gradient-11" cx="350.61" cy="190.02" r="3.09" xlink:href="#radial-gradient"/><radialGradient id="radial-gradient-12" cx="325.2" cy="244.56" r="5.64" xlink:href="#radial-gradient-2"/><linearGradient id="linear-gradient-61" x1="164.71" y1="260.06" x2="175.85" y2="260.06" gradientUnits="userSpaceOnUse"><stop offset="0" stop-color="#2997d1"/><stop offset="1" stop-color="#77dee8"/></linearGradient><linearGradient id="linear-gradient-62" x1="172.32" y1="262.14" x2="179.11" y2="262.14" xlink:href="#linear-gradient-61"/><linearGradient id="linear-gradient-63" x1="161.43" y1="259.48" x2="177.84" y2="259.48" gradientUnits="userSpaceOnUse"><stop offset="0" stop-color="aqua"/><stop offset="1" stop-color="aqua"/></linearGradient><linearGradient id="linear-gradient-64" x1="91.78" y1="17" x2="102.92" y2="17" xlink:href="#linear-gradient-61"/><linearGradient id="linear-gradient-65" x1="99.39" y1="19.09" x2="106.18" y2="19.09" xlink:href="#linear-gradient-61"/><linearGradient id="linear-gradient-66" x1="88.5" y1="16.43" x2="104.91" y2="16.43" xlink:href="#linear-gradient-63"/><linearGradient id="linear-gradient-67" x1="216.4" y1="4.61" x2="230.46" y2="4.61" gradientTransform="translate(13.91 149.97) rotate(-37.41)" gradientUnits="userSpaceOnUse"><stop offset="0" stop-color="#fe456d"/><stop offset="1" stop-color="#feff93"/></linearGradient><linearGradient id="linear-gradient-68" x1="226.01" y1="7.24" x2="234.58" y2="7.24" xlink:href="#linear-gradient-67"/><linearGradient id="linear-gradient-69" x1="212.27" y1="3.88" x2="232.98" y2="3.88" gradientTransform="translate(13.91 149.97) rotate(-37.41)" xlink:href="#radial-gradient-2"/><linearGradient id="linear-gradient-70" x1="331.89" y1="98.85" x2="343.7" y2="98.85" gradientTransform="translate(271.66 -264.29) rotate(60.84)" xlink:href="#linear-gradient-61"/><linearGradient id="linear-gradient-71" x1="339.97" y1="101.06" x2="347.16" y2="101.06" gradientTransform="translate(271.66 -264.29) rotate(60.84)" xlink:href="#linear-gradient-61"/><linearGradient id="linear-gradient-72" x1="328.42" y1="98.24" x2="345.82" y2="98.24" gradientTransform="translate(271.66 -264.29) rotate(60.84)" xlink:href="#linear-gradient-63"/><linearGradient id="linear-gradient-73" x1="13.86" y1="189.83" x2="17.15" y2="189.83" xlink:href="#radial-gradient-2"/><linearGradient id="linear-gradient-74" x1="0.05" y1="196.32" x2="10.56" y2="196.32" xlink:href="#radial-gradient-2"/><linearGradient id="linear-gradient-75" x1="12.99" y1="193.85" x2="24.43" y2="193.85" xlink:href="#radial-gradient-2"/><linearGradient id="linear-gradient-76" x1="7.33" y1="198.66" x2="14.78" y2="198.66" xlink:href="#radial-gradient-2"/><linearGradient id="linear-gradient-77" x1="0" y1="191.92" x2="22.65" y2="191.92" xlink:href="#radial-gradient-2"/><linearGradient id="linear-gradient-78" x1="33.87" y1="275.63" x2="36.37" y2="275.63" gradientTransform="translate(184.44 50.69) rotate(37.75)" xlink:href="#linear-gradient-61"/><linearGradient id="linear-gradient-79" x1="23.39" y1="280.56" x2="31.37" y2="280.56" gradientTransform="translate(184.44 50.69) rotate(37.75)" xlink:href="#linear-gradient-61"/><linearGradient id="linear-gradient-80" x1="33.21" y1="278.69" x2="41.89" y2="278.69" gradientTransform="translate(184.44 50.69) rotate(37.75)" xlink:href="#linear-gradient-61"/><linearGradient id="linear-gradient-81" x1="28.91" y1="282.34" x2="34.57" y2="282.34" gradientTransform="translate(184.44 50.69) rotate(37.75)" xlink:href="#linear-gradient-61"/><linearGradient id="linear-gradient-82" x1="23.35" y1="277.22" x2="40.54" y2="277.22" gradientTransform="translate(184.44 50.69) rotate(37.75)" xlink:href="#linear-gradient-63"/><linearGradient id="linear-gradient-83" x1="330.25" y1="341.73" x2="333.54" y2="341.73" gradientTransform="matrix(0.61, 0.79, -0.79, 0.61, 392.19, -176.4)" xlink:href="#linear-gradient-61"/><linearGradient id="linear-gradient-84" x1="316.44" y1="348.22" x2="326.95" y2="348.22" gradientTransform="matrix(0.61, 0.79, -0.79, 0.61, 392.19, -176.4)" xlink:href="#linear-gradient-61"/><linearGradient id="linear-gradient-85" x1="329.38" y1="345.75" x2="340.82" y2="345.75" gradientTransform="matrix(0.61, 0.79, -0.79, 0.61, 392.19, -176.4)" xlink:href="#linear-gradient-61"/><linearGradient id="linear-gradient-86" x1="323.72" y1="350.56" x2="331.17" y2="350.56" gradientTransform="matrix(0.61, 0.79, -0.79, 0.61, 392.19, -176.4)" xlink:href="#linear-gradient-61"/><linearGradient id="linear-gradient-87" x1="316.39" y1="343.82" x2="339.04" y2="343.82" gradientTransform="matrix(0.61, 0.79, -0.79, 0.61, 392.19, -176.4)" xlink:href="#linear-gradient-63"/><linearGradient id="linear-gradient-88" x1="84.83" y1="83.51" x2="101.15" y2="83.51" gradientUnits="userSpaceOnUse"><stop offset="0" stop-color="#113dc7"/><stop offset="1" stop-color="#069fff"/></linearGradient><linearGradient id="linear-gradient-89" x1="86.57" y1="81.18" x2="98.21" y2="81.18" xlink:href="#linear-gradient-88"/><linearGradient id="linear-gradient-90" x1="84.71" y1="81.08" x2="100.21" y2="81.08" gradientUnits="userSpaceOnUse"><stop offset="0" stop-color="#069fff"/><stop offset="1" stop-color="#113dc7"/></linearGradient><linearGradient id="linear-gradient-91" x1="52.63" y1="393.17" x2="81.4" y2="393.17" gradientTransform="translate(316.29 -164.21) rotate(47.54)" xlink:href="#linear-gradient-67"/><linearGradient id="linear-gradient-92" x1="55.71" y1="389.06" x2="76.22" y2="389.06" gradientTransform="translate(316.29 -164.21) rotate(47.54)" xlink:href="#linear-gradient-67"/><linearGradient id="linear-gradient-93" x1="52.42" y1="388.88" x2="79.75" y2="388.88" gradientTransform="translate(316.29 -164.21) rotate(47.54)" xlink:href="#radial-gradient-2"/><linearGradient id="linear-gradient-94" x1="108.47" y1="129.34" x2="137.23" y2="129.34" gradientTransform="translate(316.29 -164.21) rotate(47.54)" xlink:href="#linear-gradient-88"/><linearGradient id="linear-gradient-95" x1="111.54" y1="125.24" x2="132.05" y2="125.24" gradientTransform="translate(316.29 -164.21) rotate(47.54)" xlink:href="#linear-gradient-88"/><linearGradient id="linear-gradient-96" x1="108.26" y1="125.06" x2="135.58" y2="125.06" gradientTransform="translate(316.29 -164.21) rotate(47.54)" xlink:href="#linear-gradient-90"/></defs><g class="cls-2"><g id="Layer_2" data-name="Layer 2"><g id="BACKGROUND"><path class="cls-3" d="M315.81,192.19c-135.34,11.43-225.55,70.21-254,91.34"/><path class="cls-4" d="M289.55,172.61C154.21,184,64,242.81,35.51,263.94c-3.91,2.9-9.67-.19-9.67-5.18V136.25a11.33,11.33,0,0,1,4.3-9C50.87,111,145.61,43,293.22,31.55A6.36,6.36,0,0,1,300,37.82V161.26A11.28,11.28,0,0,1,289.55,172.61Z"/><path class="cls-5" d="M302.68,179c-135.34,11.43-225.55,70.2-254,91.34-3.91,2.9-9.67-.2-9.67-5.19V142.62a11.32,11.32,0,0,1,4.3-9C64,117.38,158.74,49.37,306.35,37.91a6.36,6.36,0,0,1,6.76,6.28V167.62A11.27,11.27,0,0,1,302.68,179Z"/><path class="cls-6" d="M315.81,185.33c-135.34,11.43-225.55,70.21-254,91.34-3.91,2.9-9.67-.2-9.67-5.19V149a11.32,11.32,0,0,1,4.3-9c20.73-16.26,115.47-84.26,263.08-95.72a6.35,6.35,0,0,1,6.76,6.27V174A11.27,11.27,0,0,1,315.81,185.33Z"/><g class="cls-7"><g class="cls-8"><polygon class="cls-9" points="75.65 212.88 48.91 232.27 48.91 227.82 75.65 208.43 75.65 212.88"/><polygon class="cls-10" points="78.01 359.51 46.54 382.33 46.54 232.4 78.01 209.58 78.01 359.51"/><polygon class="cls-11" points="68.56 211.76 56 220.87 56 218.23 68.56 209.12 68.56 211.76"/><polygon class="cls-12" points="71.89 211.15 52.67 225.09 52.67 222.87 71.89 208.93 71.89 211.15"/></g><g class="cls-8"><polygon class="cls-13" points="300.15 136.97 300.15 134.84 297.38 135.34 297.38 126.17 296.76 126.28 296.76 123.82 295.65 124.02 295.65 124 295.65 121.45 295.65 121.45 294.22 121.7 294.22 119.58 294.22 119.57 293.52 119.69 293.52 119.7 292.72 119.85 292.72 119.84 292.72 118.2 292.02 118.32 291.43 118.43 291.43 117.2 291.43 117.19 290.54 117.35 290.54 117.33 290.54 108.18 289.51 108.36 289.51 105.36 288.81 105.48 288.21 105.59 287.5 80.58 286.78 105.84 286.18 105.95 285.48 106.08 285.48 109.08 285.15 109.14 284.45 109.26 284.45 118.43 283.56 118.59 283.56 118.61 283.56 119.83 282.97 119.94 282.27 120.06 282.27 121.7 282.27 121.71 281.47 121.86 281.47 121.84 280.77 121.97 280.77 121.98 280.77 124.1 279.34 124.36 279.34 124.36 279.34 126.91 279.34 126.92 278.15 127.14 278.15 129.6 277.61 129.69 277.61 138.87 274.84 139.36 274.84 141.48 275.9 141.29 275.9 152.37 274.84 152.55 274.84 229.25 276.2 229 277.28 228.81 277.64 228.75 278.88 228.52 279.97 228.33 280.33 228.27 281.57 228.04 282.61 227.86 283.01 227.79 284.23 227.57 284.95 227.44 285.79 227.29 286.07 227.24 287.04 227.07 287.88 226.92 288.16 226.87 289.12 226.7 289.93 226.55 290.25 226.5 290.41 226.47 290.87 226.39 290.95 226.37 292.23 226.14 293.31 225.95 293.68 225.88 294.92 225.66 296 225.47 296.36 225.41 297.6 225.18 298.64 225 299.05 224.93 300.15 224.73 300.15 148.04 299.23 148.2 299.23 137.13 300.15 136.97"/><polygon class="cls-14" points="297.38 126.17 284.29 128.5 284.29 227.56 300.15 224.73 300.15 148.04 299.23 148.2 299.23 137.13 300.15 136.97 300.15 134.84 297.38 135.34 297.38 126.17"/></g><g class="cls-15"><polygon class="cls-16" points="153.55 158.36 153.55 142.63 153.55 139.43 151.12 140.54 151.09 140.56 151.09 138.1 149.06 139.03 149.06 137.34 135.1 143.73 135.1 145.41 132.84 146.45 132.84 148.9 130.37 150.03 130.37 153.22 130.37 153.22 130.37 168.96 127.92 170.08 127.92 170.1 127.9 170.11 127.9 262.16 127.92 262.15 128.19 262.03 129.14 261.59 129.42 261.46 130.37 261.03 130.65 260.9 131.6 260.46 131.89 260.34 132.84 259.9 133.12 259.77 133.96 259.39 134.24 259.26 135.09 258.87 135.37 258.74 136.21 258.36 136.49 258.23 137.34 257.85 137.62 257.72 138.46 257.33 138.74 257.2 139.59 256.82 139.87 256.69 140.71 256.3 140.99 256.17 141.84 255.79 142.12 255.66 142.96 255.27 143.24 255.14 144.09 254.76 144.37 254.63 145.21 254.25 145.49 254.12 146.34 253.73 146.62 253.6 147.46 253.22 147.74 253.09 148.59 252.7 148.87 252.57 149.71 252.19 149.99 252.06 150.84 251.67 151.12 251.54 151.99 251.15 152.27 251.02 153.22 250.59 153.5 250.46 154.45 250.02 154.74 249.89 155.69 249.46 155.97 249.33 155.97 157.28 155.97 157.25 153.55 158.36"/><polygon class="cls-17" points="153.55 158.36 153.55 139.44 151.09 140.56 151.09 138.1 140.82 142.79 136.41 144.81 136.41 151.58 136.41 170.7 136.41 258.27 155.97 249.33 155.97 177.69 155.97 157.26 153.55 158.36"/><polygon class="cls-18" points="141.71 123.71 139.98 141.49 141.71 140.71 143.43 139.92 141.71 123.71"/></g><polygon class="cls-19" points="248.24 93.21 249.51 76.92 250.79 92.66 248.24 93.21"/><polygon class="cls-20" points="257.21 99.76 241.68 103.11 241.68 98.41 257.21 95.07 257.21 99.76"/><polygon class="cls-21" points="264.99 233.31 234.03 239.98 234.03 104.39 249.53 99 264.99 97.71 264.99 233.31"/><polygon class="cls-22" points="234.03 104.39 234.03 239.98 249.53 99 234.03 104.39"/><polygon class="cls-23" points="253.5 91.98 245.25 93.76 245.25 97.65 253.5 95.87 253.5 91.98"/><polygon class="cls-24" points="264.99 97.71 249.53 99 264.99 233.31 264.99 97.71"/><polygon class="cls-25" points="234.03 239.98 241.52 171.91 257.54 168.46 265.02 233.3 234.03 239.98"/><g class="cls-8"><polygon class="cls-26" points="326.56 124.85 309.17 127.01 309.17 124.11 326.56 121.96 326.56 124.85"/><polygon class="cls-27" points="328.1 199.65 307.63 202.18 307.63 126.17 328.1 123.64 328.1 199.65"/><polygon class="cls-28" points="321.95 121.6 313.78 122.61 313.78 120.9 321.95 119.89 321.95 121.6"/><polygon class="cls-29" points="324.12 122.26 311.61 123.81 311.61 122.36 324.12 120.82 324.12 122.26"/></g><polygon class="cls-30" points="75.31 285.87 82.2 281.74 86.01 166.64 75.31 179.52 75.31 285.87"/><polygon class="cls-31" points="86.01 166.64 75.31 285.87 82.2 281.74 95.97 273.49 95.97 167.14 86.01 166.64"/><polygon class="cls-32" points="95.97 167.14 86.01 166.64 95.97 273.49 95.97 167.14"/><g class="cls-33"><path class="cls-34" d="M212.84,138.78V128.33l-3.1,1.1V103.71l-3.12,1.11,0,0V101.5l-2.27.81s0,0,0-.08c0-2.87-4.23-3.7-9.44-1.84s-9.45,5.69-9.45,8.57c0,0,0,0,0,.07l-2.26.8v3.34L180,114.3v4.33h0V140l-3.15,1.12v0h0V151.6l-1.48.53v19.36l0,61.24h0l1.48-.53h0l.35-.12,1.21-.44.37-.13,1.22-.43.36-.13,1.22-.43.36-.13,1.22-.44.36-.12,1.08-.39.36-.13,1.08-.38.37-.13,1.08-.39.36-.13,1.08-.38.36-.13,1.08-.38.36-.13,1.08-.39.37-.13,1.07-.38.37-.13,1.08-.38.36-.13,1.08-.39.36-.13,1.08-.38.36-.13,1.08-.39.37-.12,1.08-.39.36-.13,1.08-.38.36-.13,1.08-.39.36-.13,1.08-.38.37-.13,1.08-.38.36-.13,1.11-.4.36-.13,1.22-.43.36-.13,1.22-.43.37-.13,1.21-.44.37-.13,1.55-.55v-80.6Z"/><polygon class="cls-35" points="190.75 107.14 183.18 109.83 183.18 113.17 180.02 114.3 180.02 140.01 176.87 141.13 176.87 151.59 175.37 152.13 175.37 232.73 190.75 227.25 190.75 107.14"/><polygon class="cls-36" points="214.38 138.36 214.38 138.24 212.84 138.79 212.84 128.32 209.73 129.43 209.73 103.71 206.57 104.84 206.57 101.51 198.12 104.52 198.12 104.51 190.75 107.14 190.75 113.9 190.75 113.9 190.75 146.77 190.75 148.29 190.75 227.25 214.39 218.83 214.39 138.36 214.38 138.36"/></g><polygon class="cls-37" points="123.41 199.05 123.41 183.32 123.41 180.13 120.98 181.7 120.95 181.72 120.95 179.27 118.92 180.58 118.92 178.89 116.72 177.73 107.17 183.92 104.96 187.94 104.96 189.63 102.7 191.09 102.7 193.54 100.23 195.14 100.23 198.33 100.23 198.34 100.23 214.07 97.78 215.66 97.78 215.68 97.77 215.69 97.77 270.6 97.78 270.59 98.05 270.42 99 269.8 99.28 269.62 100.23 269.01 100.51 268.82 101.46 268.21 101.75 268.02 102.7 267.41 102.98 267.23 103.82 266.68 104.11 266.5 104.95 265.95 105.23 265.77 106.07 265.22 106.36 265.04 107.2 264.49 107.48 264.31 108.32 263.76 108.61 263.58 109.45 263.04 109.73 262.85 110.57 262.31 110.86 262.12 111.7 261.58 111.98 261.39 112.82 260.85 113.11 260.67 113.95 260.12 114.23 259.94 115.07 259.39 115.36 259.21 116.2 258.66 116.48 258.48 117.32 257.93 117.61 257.75 118.45 257.2 118.73 257.02 119.57 256.48 119.86 256.29 120.7 255.75 120.98 255.56 121.85 255 122.13 254.82 123.08 254.2 123.36 254.02 124.31 253.41 124.6 253.22 125.55 252.61 125.83 252.42 125.83 197.51 125.83 197.49 123.41 199.05"/><polygon class="cls-38" points="123.41 199.06 123.41 180.13 120.95 181.72 120.95 179.26 110.68 185.92 106.27 188.78 106.27 195.54 106.27 214.66 106.27 265.1 125.83 252.43 125.83 217.93 125.83 197.49 123.41 199.06"/><polygon class="cls-39" points="311.84 143.29 311.84 138.05 309.89 138.29 309.89 135.21 308.15 135.43 308.15 132.35 301.61 133.16 301.61 136.24 299.88 136.45 299.88 139.53 297.92 139.77 297.92 145.02 296.69 145.17 296.69 209.8 313.07 207.77 313.07 143.14 311.84 143.29"/><polygon class="cls-40" points="231.28 164.61 231.28 161.02 227.72 161.79 227.72 159.69 224.57 160.37 224.57 158.26 212.7 160.82 212.7 162.93 209.55 163.6 209.55 165.71 205.99 166.47 205.99 170.06 203.76 170.54 203.76 267.8 233.51 261.39 233.51 164.13 231.28 164.61"/><polygon class="cls-41" points="224.57 160.37 227.72 159.69 227.72 161.79 231.28 161.02 231.28 164.61 233.51 164.13 233.51 261.39 216.54 265.05 216.54 162.09 224.57 160.37"/><polygon class="cls-42" points="277.75 148.79 277.75 146.17 275.55 146.57 275.55 145.03 273.6 145.38 273.6 143.85 268.1 144.83 268.1 144.83 266.24 145.16 266.24 145.16 266.24 146.7 264.29 147.04 264.29 147.08 264.29 148.58 262.09 148.97 262.09 149.05 262.09 151.58 260.7 151.83 260.7 207.11 268.1 205.79 279.14 203.82 279.14 148.54 277.75 148.79"/><polygon class="cls-43" points="273.6 145.38 275.55 145.03 275.55 146.57 277.75 146.17 277.75 148.79 279.14 148.54 279.14 203.82 268.36 205.74 268.36 146.32 273.6 145.38"/><polygon class="cls-44" points="179.11 200.78 178.85 200.84 176.59 201.33 176.59 196.79 175.59 197 175.59 193.24 176.82 192.97 176.82 191.29 173.67 191.97 173.67 149.15 174.62 148.95 174.62 147.82 173.67 148.03 172.85 148.21 172.85 136.1 171.88 136.31 171.88 132.5 171 132.69 171 129.06 170.13 129.25 170.13 125.61 169.21 125.81 169.21 122.18 168.08 122.42 168.08 118.79 167.11 119 167.11 115.37 166.18 115.57 166.18 111.93 165.76 112.03 165.04 97.79 164.32 112.33 163.93 112.42 163.93 116.05 163 116.25 163 119.88 162.03 120.09 162.03 123.73 160.9 123.97 160.9 127.6 159.98 127.8 159.98 131.43 159.11 131.62 159.11 135.25 158.23 135.44 158.23 139.25 158.23 139.25 157.26 139.46 157.26 151.57 156.44 151.74 155.49 151.95 155.49 153.07 156.44 152.87 156.44 154.18 156.44 154.19 156.44 195.63 156.44 195.63 156.44 195.68 153.29 196.36 153.29 198.05 154.52 197.78 154.52 201.54 153.52 201.76 153.52 206.3 151.23 206.79 150.94 206.85 150.94 207.37 151.23 207.31 151.23 259.17 178.85 253.22 178.85 201.36 179.11 201.3 179.11 200.78"/><polygon class="cls-45" points="172.85 136.1 163.69 138.07 163.69 256.48 178.85 253.22 178.85 201.36 179.11 201.3 179.11 200.78 176.59 201.33 176.59 196.79 175.59 197 175.59 193.24 176.82 192.97 176.82 191.29 173.67 191.97 173.67 149.15 174.62 148.95 174.62 147.82 172.85 148.21 172.85 136.1"/><polygon class="cls-46" points="229.86 220.57 235.5 219.04 238.61 159.76 229.86 167.44 229.86 220.57"/><polygon class="cls-47" points="238.61 159.76 229.86 220.57 235.5 219.04 246.76 215.97 246.76 162.83 238.61 159.76"/><polygon class="cls-48" points="246.76 162.83 238.61 159.76 246.76 215.97 246.76 162.83"/></g><path class="cls-49" d="M203.06,87.27a1,1,0,1,1-1-1A1,1,0,0,1,203.06,87.27Z"/><path class="cls-49" d="M299.91,62.88a1.58,1.58,0,1,1-1.58-1.58A1.58,1.58,0,0,1,299.91,62.88Z"/><path class="cls-49" d="M274.27,104.57a1,1,0,1,1-1-1A1,1,0,0,1,274.27,104.57Z"/><path class="cls-49" d="M121.37,156.56a1,1,0,1,1-1-1A1,1,0,0,1,121.37,156.56Z"/><path class="cls-49" d="M123.11,129.59a1,1,0,1,1-1-1A1,1,0,0,1,123.11,129.59Z"/><path class="cls-49" d="M318.22,66a1,1,0,1,1-1-1A1,1,0,0,1,318.22,66Z"/><path class="cls-49" d="M276.54,76.36a1,1,0,1,1-1-1A1,1,0,0,1,276.54,76.36Z"/><path class="cls-49" d="M178,127.26a1,1,0,1,1-1-1A1,1,0,0,1,178,127.26Z"/><path class="cls-49" d="M87.33,149.58a1,1,0,1,1-1-1A1,1,0,0,1,87.33,149.58Z"/><path class="cls-49" d="M235.4,63.88a1,1,0,1,1-1-1A1,1,0,0,1,235.4,63.88Z"/><path class="cls-49" d="M96.32,130.55a1,1,0,1,1-1-1A1,1,0,0,1,96.32,130.55Z"/><path class="cls-49" d="M107.58,172.7a1,1,0,1,1-1-1A1,1,0,0,1,107.58,172.7Z"/><path class="cls-49" d="M66.42,196.05a1,1,0,1,1-1-1A1,1,0,0,1,66.42,196.05Z"/><path class="cls-49" d="M142.69,113.15a1,1,0,1,1-1-1A1,1,0,0,1,142.69,113.15Z"/><path class="cls-49" d="M151,96a1,1,0,1,1-1-1A1,1,0,0,1,151,96Z"/><path class="cls-49" d="M179,78.38a1,1,0,1,1-1-1A1,1,0,0,1,179,78.38Z"/><path class="cls-49" d="M226.79,97a1,1,0,1,1-1-1A1,1,0,0,1,226.79,97Z"/><path class="cls-49" d="M231,124.77a1,1,0,1,1-1-1A1,1,0,0,1,231,124.77Z"/><path class="cls-49" d="M306.59,96a1,1,0,1,1-1-1A1,1,0,0,1,306.59,96Z"/><path class="cls-49" d="M272.46,54.44a1,1,0,1,1-1-1A1,1,0,0,1,272.46,54.44Z"/><path class="cls-49" d="M64.42,175.13a1,1,0,1,1-1-1A1,1,0,0,1,64.42,175.13Z"/><ellipse class="cls-50" cx="208.54" cy="121.77" rx="16.25" ry="21.58"/><ellipse class="cls-51" cx="208.54" cy="121.77" rx="13.35" ry="17.72"/><ellipse class="cls-52" cx="208.54" cy="121.77" rx="10.79" ry="14.33"/><ellipse class="cls-53" cx="208.54" cy="121.77" rx="8.51" ry="11.3"/><path class="cls-54" d="M215,121.77c0,4.75-2.91,8.61-6.49,8.61s-6.48-3.86-6.48-8.61,2.9-8.62,6.48-8.62S215,117,215,121.77Z"/><ellipse class="cls-55" cx="151.46" cy="177.23" rx="16.25" ry="21.58"/><ellipse class="cls-56" cx="151.46" cy="177.23" rx="13.35" ry="17.72"/><ellipse class="cls-57" cx="151.46" cy="177.23" rx="10.79" ry="14.33"/><ellipse class="cls-58" cx="151.46" cy="177.23" rx="8.51" ry="11.3"/><path class="cls-59" d="M158,177.23c0,4.76-2.91,8.62-6.49,8.62S145,182,145,177.23s2.91-8.61,6.49-8.61S158,172.48,158,177.23Z"/><path class="cls-60" d="M299,138.81c-.92,5.51-6.26,22.31-6.86,24.55s-.82,13.61-.82,13.61l-17.54,1.62-.06-8.54,0-4.6s-4.39-.2-6.64-1.53-4.09-3.88-3.77-9.39,3.06-19.5,3.06-19.5c5.1-14.39,16.84-12.87,23.58-11.33S300,133.29,299,138.81Z"/><path class="cls-61" d="M277,170.23l-3.25-.18,0-4.6s2.12.05,2.69.75S277,170.23,277,170.23Z"/><path class="cls-62" d="M296,273.16a6,6,0,0,0-2.91-4.1c-5.3-3.35-16.62-2.43-25.85-.9-12.67-5-36.28-3.32-36.28-3.32s-2.74,11.67-4.87,21.67c-2,9.39-7,37-7,37h67.73s0-6,0-9.75a5.94,5.94,0,0,1,1-3.31C298.18,295.1,298.12,284.92,296,273.16Z"/><path class="cls-63" d="M287.81,310.44a5.94,5.94,0,0,0-1,3.31c0,3.76,0,9.75,0,9.75h-9.63s4.62-3.81,2.85-6.65-6.36-3.12-5.81-5,16.51-10.17,16.51-22.36-14.19-12.16-14.34-12.16c0,0,12.66-6.35,16.74-8.27a6,6,0,0,1,2.91,4.1C298.12,284.92,298.18,295.1,287.81,310.44Z"/><path class="cls-64" d="M225.53,125a17,17,0,0,0-5.9-4.49c-5.69-2.73-11.58-2.29-13.16,1s1.77,8.14,7.48,10.87c.32.16.64.3,1,.44a20.51,20.51,0,0,1,6,3.86,14.61,14.61,0,0,1,3.91,9.5c.24,3.18-.81,11,.57,14s7.06,4.07,9.41,2.57S232.54,133.69,225.53,125Zm-1.77,3.61c-1.07,2.21-5,2.51-8.9.66s-6.11-5.14-5-7.34,5-2.52,8.89-.67S224.82,126.37,223.76,128.59Z"/><path class="cls-65" d="M223.76,128.59a2.54,2.54,0,0,1-.5.7c0-2.28-2.34-5-5.84-6.73a11,11,0,0,0-7.33-1.09c1.34-1.81,5-2,8.62-.23C222.56,123.09,224.82,126.37,223.76,128.59Z"/><path class="cls-60" d="M226.6,144.4s-1.76-1.17-2.55-1-.49,1.18.43,2.45a10.48,10.48,0,0,0,3.07,2.78,19.25,19.25,0,0,1,5.47,5.18c2.15,3.4,16.46,38.24,16.46,38.24l15.58-9.26s-25.4-32.36-26.7-35.7c-.87-4.5-4.57-8.25-6.86-9a13.56,13.56,0,0,1,.37,1.81,6.16,6.16,0,0,1-.44,3.83C230.26,145.64,226.6,144.4,226.6,144.4Z"/><path class="cls-66" d="M295.65,173.83c-.09-.86-.29-1.93-.5-2.91a4.16,4.16,0,0,0-3.92-3.32,86.94,86.94,0,0,0-8.83.22c-9.86.65-13.84,1.59-13.84,1.59l-1.69,4.7s-14.77,2.23-21.43,14.37c-2.42,4.43-5.25,17.23-7.76,30.74-3.28,17.72-6,36.7-6.61,39.81-.21,1.12-.44,2.33-.64,3.57h0s-5.49,16.43,11.84,20.15c26.06,5.59,51.49-6.42,53.85-12.59h0c1.95-3.87.76-17.3,4.35-28.07,3.92-11.76,10.18-36.56,11.49-48.75C313.88,175.44,295.65,173.83,295.65,173.83Z"/><path class="cls-67" d="M238.39,251.24a12.4,12.4,0,0,0,.77,6.24h-7.8c.93-5.68,3.42-22.46,6.35-38.26,12.82-5.42,25.5-10.31,25.5-10.31a258.12,258.12,0,0,0-15.94,24.3C239.41,246.75,239.17,243.92,238.39,251.24Z"/><path class="cls-68" d="M168.42,180.39a17,17,0,0,0-5.89-4.49c-5.7-2.73-11.58-2.29-13.16,1s1.77,8.14,7.48,10.87c.32.16.64.3,1,.44,1.54.7,4.51,2.22,6,3.86a14.5,14.5,0,0,1,3.91,9.5c.25,3.18-.8,11,.58,14s7,4.07,9.41,2.57S175.44,189.1,168.42,180.39ZM166.65,184c-1.06,2.21-5,2.51-8.89.66s-6.11-5.14-5-7.35,5-2.51,8.88-.66S167.72,181.78,166.65,184Z"/><path class="cls-69" d="M166.65,184a2.3,2.3,0,0,1-.5.7c0-2.28-2.33-5-5.83-6.73a11,11,0,0,0-7.33-1.09c1.34-1.81,5-1.95,8.61-.23C165.46,178.49,167.72,181.78,166.65,184Z"/><path class="cls-60" d="M227.27,206.51l-7.92,11.57s-3.89-2.51-15.3-6.45c-5-1.7-10.78-3.8-15.14-5.21a72.05,72.05,0,0,1-9.56-3.79s-3.95,2.58-3.95,6.89c0,0,33.06,24.3,40.77,27.43s9.14,4.71,14.89,1.44,16.2-17.9,16.2-17.9Z"/><path class="cls-66" d="M266.86,174.11s-16.46.7-24.65,8.88-17.42,24.39-17.42,24.39,8.19,14.11,23.69,18a178.59,178.59,0,0,0,14.71-16.42C271.2,198.28,280.54,180.73,266.86,174.11Z"/><path class="cls-60" d="M176,208.67l5.61-5a6.69,6.69,0,0,1-3.08-3.32,10.77,10.77,0,0,0-3.27-4s.59,1.91-.26,3-1.85,1.15-3.48,1a9,9,0,0,1-3.45-1.44,2.44,2.44,0,0,1-1-1.36c-.06-.2-.13-.4-.19-.56a3.8,3.8,0,0,0-.89,1.53,3.44,3.44,0,0,0,.35,1.58,6.28,6.28,0,0,0-.57,2.21,2,2,0,0,0,.47,1,6.25,6.25,0,0,0,.11,1.16,2.73,2.73,0,0,0,.47.91,4.32,4.32,0,0,0,.19,1.44,6.92,6.92,0,0,0,3.31,3.75c2,1.2,8.07,1.11,8.07,1.11l-2.35-3Z"/><path class="cls-60" d="M176,211.59s2-.14,5.08,2.08-.46-3.72-.68-3.68a14,14,0,0,0-2.14-.47C177.52,209.56,176,211.59,176,211.59Z"/><path class="cls-62" d="M303.72,138.43c-2.45,6.09-7,24.39-10.92,25.24a24.22,24.22,0,0,1-6.16.11c-3.31-.25-6.37-.78-6.37-.78-2.7-.89,1-12.75,1.55-15,.58-2.43.12-4.1-1.49-4.35-2.24-.36-4,6.16-4.66,7.78l-1.4-1.45c.35-2,1.41-7,1.07-7.74-.54-1.22-1.12-.49-6.14-3.78a11.17,11.17,0,0,1-4.91-9c-1.09-6.39.27-12.65,4.34-11.69s15.37-1.37,23.4.94,8.69,8,8.69,8C302.91,128.26,306.17,132.33,303.72,138.43Z"/><path class="cls-70" d="M303.72,138.43c-2.45,6.09-7,24.39-10.92,25.24a24.22,24.22,0,0,1-6.16.11c.15-.12,2.2-1.13,2.22-4.59s-6.13-5.47-6.13-5.47h.1a7.73,7.73,0,0,0,8.87-7.9,8.84,8.84,0,0,0-.88-4c-2.09-3.72-3.42-6.51-.52-6.85s8.69.87,11.3-2.75c1.95-2.71-.88-5.45-.88-5.45C302.91,128.26,306.17,132.33,303.72,138.43Z"/><path class="cls-62" d="M275.27,148.52a4.75,4.75,0,0,1-.89,1.56l-.11-.13c.2-1.09.6-3.13.88-4.86l0,.09A4.63,4.63,0,0,1,275.27,148.52Z"/><path class="cls-71" d="M273.12,144.84s6.88,2.51,14.37,4.47c9.24,2.41,12.24,0,13-1.18,0,0,0,4.42-2.1,6.14-1.79,1.45-7.41,1.42-12,.41-3.74-.81-14.89-4.52-14.89-4.52Z"/><path class="cls-66" d="M275.27,148.52a4.75,4.75,0,0,1-.89,1.56,3.45,3.45,0,0,1-2.7,1.21c-2.9,0-13.43-2.86-13.54-4.22a1.55,1.55,0,0,1,0-.23c0-1.65.91-7.48,1.93-9.1a1.09,1.09,0,0,1,.19-.27h0c.44-.45,1.82-1.43,5.89-2.07a1.63,1.63,0,0,0,.11.17c-.06.34-.16.83-.27,1.43,0,0,0,.07,0,.1a1.8,1.8,0,0,0,0,.28,1.46,1.46,0,0,0,1.15,1.46c1.69.5,3.07,1,3.17,1a2.19,2.19,0,0,1,1,1.48c.26,1.29,3.12,1.92,3.93,3.75l0,.09A4.63,4.63,0,0,1,275.27,148.52Z"/><circle class="cls-62" cx="270.9" cy="146.99" r="3.36"/><path class="cls-72" d="M266.86,174.11s6.65-.48,15.8-1l-15.27-.46Z"/><path class="cls-73" d="M274.17,291.43A30.4,30.4,0,0,1,264.61,305a15,15,0,0,0-4.36,5.86c-2.1,5.24-4.2,12.65-4.2,12.65H244.19s3.61-3,2-5.92-8.15-7.43,3.67-9.75C266,304.66,274.17,291.43,274.17,291.43Z"/><path class="cls-74" d="M139.35,44.26a4.74,4.74,0,1,1-4.74-4.74A4.74,4.74,0,0,1,139.35,44.26Z"/><circle class="cls-75" cx="138.11" cy="289.45" r="3.5"/><circle class="cls-76" cx="6.71" cy="240.31" r="3.5"/><path class="cls-77" d="M34.41,262.14a2.1,2.1,0,1,1-2.1-2.09A2.1,2.1,0,0,1,34.41,262.14Z"/><path class="cls-78" d="M26.52,17.18a2.1,2.1,0,1,1-2.09-2.09A2.09,2.09,0,0,1,26.52,17.18Z"/><path class="cls-79" d="M321.64,205.08a2.1,2.1,0,1,1-2.09-2.1A2.1,2.1,0,0,1,321.64,205.08Z"/><path class="cls-80" d="M204.27,276.94a2.1,2.1,0,1,1-2.09-2.09A2.1,2.1,0,0,1,204.27,276.94Z"/><path class="cls-81" d="M39,63.2a4.53,4.53,0,1,1-4.53-4.53A4.53,4.53,0,0,1,39,63.2Z"/><path class="cls-82" d="M215.82,53.22a4.53,4.53,0,1,1-4.53-4.53A4.53,4.53,0,0,1,215.82,53.22Z"/><path class="cls-83" d="M360.21,126.58a2.47,2.47,0,1,1-2.47-2.47A2.48,2.48,0,0,1,360.21,126.58Z"/><circle class="cls-84" cx="349.71" cy="190.71" r="3.5"/><path class="cls-85" d="M332.93,245.15a6.69,6.69,0,1,1-6.69-6.7A6.69,6.69,0,0,1,332.93,245.15Z"/><g class="cls-2"><path class="cls-86" d="M173.92,256.45a4,4,0,0,0-3.71-1.54,5.82,5.82,0,0,0-.82.13h-.07l0,0a3.62,3.62,0,0,0-.56.17h0l-.16.07-.3.12h0l-.32.16-.1.05h0l-.39.24h0l-.11.08-.23.16,0,0-.14.11-.16.13-.07.07a.86.86,0,0,0-.14.13l-.11.1-.09.09-.15.16-.09.09-.07.1-.17.21-.08.09a.56.56,0,0,1-.05.08l-.22.33-.07.11s0,0,0,0l-.12.21-.11.22-.09.22c0,.06-.05.11-.07.17l0,.05c0,.11-.07.22-.1.33s0,.11,0,.16a4.37,4.37,0,0,0-.09.5v0a4.51,4.51,0,0,0,0,.63v.13a.53.53,0,0,1,0,.13,3.69,3.69,0,0,0,.08.46.11.11,0,0,0,0,.05h0a2.64,2.64,0,0,0,.12.4c0,.06,0,.11.07.16a.42.42,0,0,1,0,.1l.05.09a1.92,1.92,0,0,0,.18.31.57.57,0,0,0,.08.13l1.92,2.71a3.85,3.85,0,0,1-.3-.53.36.36,0,0,1,0-.09,3.85,3.85,0,0,1-.2-.57.13.13,0,0,0,0-.06,3.68,3.68,0,0,1-.08-.58.53.53,0,0,0,0-.13,5.08,5.08,0,0,1,0-.67,4,4,0,0,1,.09-.5c0-.06,0-.11.05-.16s.06-.22.1-.33l.09-.22a1.45,1.45,0,0,1,.09-.22,1.51,1.51,0,0,1,.11-.22,2.12,2.12,0,0,1,.11-.21.86.86,0,0,1,.1-.16c.06-.11.14-.22.21-.33l.13-.17.17-.21c.05-.07.11-.13.16-.19l.16-.16.19-.19.15-.14.22-.19.14-.11.28-.2.11-.07c.13-.09.27-.17.41-.25l.09-.05.34-.17.31-.13.17-.07.56-.17.12,0a5.62,5.62,0,0,1,.82-.14,4,4,0,0,1,3.71,1.55Z"/><path class="cls-87" d="M179.76,260.81v-.24c0-.15,0-.3,0-.44V260a.29.29,0,0,1,0-.09,6,6,0,0,0-.13-.76h0a.24.24,0,0,1,0-.08c0-.18-.11-.36-.17-.53,0,0,0,0,0-.07l-.06-.14-.15-.34a.42.42,0,0,1,0-.1l-.07-.12-.16-.28a.75.75,0,0,1-.07-.12l-.14-.2-1.92-2.72c.07.11.13.22.2.32l.16.29.12.22c.05.11.1.22.14.33l.09.21c.06.18.11.36.16.54l0,.08a6.18,6.18,0,0,1,.13.77,1.49,1.49,0,0,0,0,.21c0,.15,0,.29,0,.44v.24c0,.17,0,.34,0,.51s0,.15,0,.23c0,.27-.09.55-.16.83a2.76,2.76,0,0,1-.08.27c-.05.18-.1.36-.16.54l-.15.37c-.05.12-.09.24-.15.36l-.18.37-.19.35-.16.26c-.11.18-.23.37-.36.55L176,263l-.27.34c-.09.11-.18.22-.28.32l-.25.27-.33.32c-.08.07-.15.15-.24.22l-.38.32L174,265l-.47.33c-.06,0-.11.09-.18.13l-.68.41-.16.08-.56.29-.52.21-.28.11c-.3.11-.62.21-.93.29l-.5.11-.26.05c-.26,0-.53.08-.79.1a6.68,6.68,0,0,1-6.18-2.58l1.93,2.72a6.71,6.71,0,0,0,6.17,2.58c.27,0,.53-.06.79-.1l.26-.06.43-.08.07,0c.32-.08.63-.17.94-.28h0l.27-.11.51-.21h0c.18-.08.35-.18.53-.27l.16-.08h0l.64-.38,0,0,.18-.12.38-.27.08-.06.23-.19.26-.2.12-.11.24-.23a1.45,1.45,0,0,0,.18-.17l.15-.15.25-.26a2,2,0,0,1,.14-.16,1,1,0,0,0,.13-.16c.1-.11.19-.23.28-.35l.13-.15.08-.14c.13-.18.25-.36.37-.55s.08-.11.11-.17a.3.3,0,0,0,0-.08c.07-.12.13-.24.19-.36s.13-.24.18-.36.11-.24.16-.36l.12-.29s0-.06,0-.08c.07-.18.12-.37.17-.55a2.76,2.76,0,0,1,.08-.27c.06-.27.11-.55.15-.83v-.07a.76.76,0,0,1,0-.15C179.74,261.15,179.76,261,179.76,260.81Z"/><path class="cls-88" d="M170.59,251.87c4.5-.36,7.72,2.76,7.2,7s-4.62,7.91-9.11,8.27-7.72-2.76-7.2-7S166.1,252.23,170.59,251.87Zm-1.53,12.19a6.12,6.12,0,0,0,5.47-5c.32-2.53-1.62-4.4-4.32-4.18a6.1,6.1,0,0,0-5.47,5c-.32,2.53,1.62,4.4,4.32,4.18"/></g><g class="cls-89"><g class="cls-2"><path class="cls-90" d="M101,13.4a4,4,0,0,0-3.71-1.55,5.82,5.82,0,0,0-.82.13h-.07l0,0a5.18,5.18,0,0,0-.56.17h0l-.17.07-.3.12h0l-.32.16-.1.05h0l-.39.23h0l-.11.08-.23.16,0,0-.14.11-.16.12-.07.07-.14.13-.11.1-.09.09-.15.16-.09.1-.07.09-.17.21-.08.1a.56.56,0,0,0,0,.08,2.7,2.7,0,0,0-.22.33.86.86,0,0,0-.07.1l0,.05-.12.21a1.51,1.51,0,0,1-.11.22l-.09.22c0,.06,0,.11-.07.17a.11.11,0,0,0,0,.05c0,.11-.07.22-.1.33a1.42,1.42,0,0,0,0,.16,4.37,4.37,0,0,0-.09.5v.05a4.33,4.33,0,0,0,0,.62.53.53,0,0,0,0,.13v.13c0,.16,0,.31.08.46a.09.09,0,0,0,0,.05h0c0,.14.08.27.12.41l.07.15a.93.93,0,0,0,.05.1l0,.1a2.48,2.48,0,0,0,.18.31.83.83,0,0,0,.08.12l1.92,2.71a4.4,4.4,0,0,1-.3-.52,1,1,0,0,0,0-.1,3.49,3.49,0,0,1-.2-.57.07.07,0,0,0,0-.05,3.81,3.81,0,0,1-.08-.59.57.57,0,0,0,0-.13,5.08,5.08,0,0,1,0-.67,4,4,0,0,1,.09-.5c0-.05,0-.11.05-.16s.06-.22.1-.33l.09-.22.09-.22a1.51,1.51,0,0,1,.11-.22l.11-.21c0-.06.07-.11.1-.16l.21-.33.13-.17.17-.21.17-.19a1.1,1.1,0,0,1,.15-.16l.19-.19.15-.14.22-.19.14-.11.28-.2.11-.07c.13-.09.27-.17.41-.25l.09-.05.34-.17.31-.13.17-.07.56-.17.12,0a5.6,5.6,0,0,1,.82-.13,4,4,0,0,1,3.71,1.54Z"/><path class="cls-91" d="M106.83,17.75v-.24c0-.15,0-.29,0-.44V17a.36.36,0,0,1,0-.1,6.35,6.35,0,0,0-.13-.76h0a.25.25,0,0,1,0-.07,4.84,4.84,0,0,0-.17-.54.64.64,0,0,1,0-.07l-.06-.14-.15-.34a.3.3,0,0,1,0-.1l-.07-.11-.16-.29a.75.75,0,0,1-.07-.12c-.05-.06-.09-.13-.14-.2l-1.92-2.71a3.45,3.45,0,0,1,.2.32,2.54,2.54,0,0,1,.16.28l.12.22a3.45,3.45,0,0,1,.14.34l.09.21a4.64,4.64,0,0,1,.16.53l0,.08a6.51,6.51,0,0,1,.13.77,1.8,1.8,0,0,0,0,.22c0,.14,0,.29,0,.43V15c0,.17,0,.34,0,.52a1.7,1.7,0,0,1,0,.22,8.09,8.09,0,0,1-.16.83,2.76,2.76,0,0,1-.08.27c-.05.18-.1.36-.16.54s-.1.25-.15.37-.09.25-.15.37l-.18.36a3.9,3.9,0,0,1-.19.35l-.16.26a6.49,6.49,0,0,1-.36.55l-.21.29-.28.35c-.09.1-.18.21-.28.31l-.25.27c-.1.11-.21.21-.32.32l-.25.22-.37.32-.23.18a5,5,0,0,1-.47.33c-.06,0-.11.09-.18.13a7.66,7.66,0,0,1-.68.41.8.8,0,0,1-.16.08l-.56.29c-.17.08-.35.14-.52.21l-.28.11a9.15,9.15,0,0,1-.93.29l-.5.11-.26.05a7.11,7.11,0,0,1-.79.1,6.7,6.7,0,0,1-6.18-2.57l1.93,2.71a6.66,6.66,0,0,0,6.17,2.58c.27,0,.53-.06.79-.1l.26-.05.43-.09.08,0c.31-.08.62-.17.93-.28h0l.27-.11.51-.21,0,0c.18-.08.35-.18.53-.27l.16-.08h0l.64-.38,0,0,.18-.13c.13-.09.26-.17.38-.27l.08-.06.23-.18.26-.21.12-.11.24-.22.19-.18.14-.15.25-.26.14-.15.13-.17c.1-.11.19-.23.28-.34s.09-.11.13-.16a1,1,0,0,1,.09-.13l.36-.55c0-.06.08-.12.11-.18a.56.56,0,0,0,0-.08l.18-.35c.07-.12.13-.24.19-.37l.15-.36.12-.29s0-.05,0-.08a5,5,0,0,0,.17-.55,2.58,2.58,0,0,1,.08-.26,8.22,8.22,0,0,0,.15-.84v-.07c0-.05,0-.1,0-.15A4.36,4.36,0,0,0,106.83,17.75Z"/><path class="cls-92" d="M97.67,8.81c4.49-.36,7.72,2.76,7.19,7s-4.62,7.91-9.11,8.27S88,21.28,88.56,17.09,93.17,9.17,97.67,8.81ZM96.13,21a6.12,6.12,0,0,0,5.48-5c.31-2.53-1.62-4.4-4.33-4.18a6.12,6.12,0,0,0-5.47,5c-.32,2.53,1.62,4.4,4.32,4.18"/></g></g><g class="cls-2"><path class="cls-93" d="M195.07,11.46a5.08,5.08,0,0,0-4.91,1.29,7.36,7.36,0,0,0-.71.77l-.06.06,0,.05c-.15.2-.3.39-.43.6h0l-.11.19-.21.36v0c-.07.13-.14.27-.2.41l-.06.12h0c-.08.17-.15.35-.21.52v0c0,.05,0,.11,0,.16s-.07.23-.11.34a.19.19,0,0,1,0,.07,1.74,1.74,0,0,1,0,.22l-.06.24s0,.08,0,.12,0,.17,0,.25,0,.12,0,.19,0,.1,0,.15l0,.28a1,1,0,0,1,0,.16v.15c0,.12,0,.23,0,.34v.16s0,.08,0,.12,0,.33,0,.49a.92.92,0,0,1,0,.16.17.17,0,0,1,0,.07l.06.3c0,.1,0,.2.05.3s.05.2.08.3a1.8,1.8,0,0,0,.06.22.14.14,0,0,0,0,.06l.15.41c0,.06,0,.13.08.2s.18.38.29.57l0,0a5,5,0,0,0,.46.64l.1.12.11.13a4.07,4.07,0,0,0,.43.4l0,0h0a3.19,3.19,0,0,0,.44.31l.19.11.12.06.11.07.42.17.17.06,4,1.25a4.45,4.45,0,0,1-.71-.3l-.12-.07a4.31,4.31,0,0,1-.63-.42l-.05,0a5.39,5.39,0,0,1-.54-.53l-.1-.12a5.13,5.13,0,0,1-.49-.7,5.07,5.07,0,0,1-.29-.57c0-.06-.05-.13-.08-.19L192,22c0-.09,0-.19-.08-.29s-.05-.19-.08-.29,0-.2,0-.3,0-.2-.05-.3l0-.23c0-.16,0-.33,0-.5s0-.18,0-.27,0-.23,0-.34,0-.21,0-.31l0-.28c0-.11,0-.23,0-.34s0-.17,0-.25,0-.24.08-.36l.06-.22c0-.14.08-.28.12-.41s0-.11.05-.16.14-.38.22-.56l.06-.13.21-.43.21-.36.12-.2a6.51,6.51,0,0,1,.43-.6l.1-.12a7.36,7.36,0,0,1,.72-.76,5.05,5.05,0,0,1,4.9-1.29Z"/><path class="cls-94" d="M204.26,11.35l-.19-.24a4.87,4.87,0,0,0-.35-.42,1.13,1.13,0,0,1-.1-.13l-.09-.08a7.4,7.4,0,0,0-.72-.66h0l-.07-.06c-.19-.14-.38-.28-.58-.41l-.07-.05-.17-.09L201.5,9l-.12-.07-.16-.06-.38-.16-.16-.07-.29-.1-4-1.24a4,4,0,0,1,.45.16l.38.16.28.13.41.23c.08,0,.16.09.24.15a5.81,5.81,0,0,1,.57.4l.09.07a7.52,7.52,0,0,1,.72.67l.19.2c.12.13.24.28.35.42l.19.24.36.54c0,.08.1.15.15.24a7.68,7.68,0,0,1,.48.95,3.24,3.24,0,0,1,.13.33c.09.22.18.44.25.67s.09.32.14.48.09.32.12.48.07.34.1.51.06.33.08.5,0,.25,0,.37c0,.28.05.55.06.83s0,.31,0,.46,0,.37,0,.56a4.84,4.84,0,0,1,0,.53c0,.15,0,.3-.05.45s0,.39-.08.58,0,.27-.07.4-.09.41-.13.61l-.09.36-.21.69-.09.26c-.11.32-.23.63-.36.94l-.1.2c-.11.24-.22.49-.35.72s-.23.41-.35.61l-.2.33c-.22.34-.46.67-.71,1l-.42.49c-.07.08-.14.17-.22.25a9.63,9.63,0,0,1-.72.71,8.42,8.42,0,0,1-8.16,2.15l4,1.25A8.41,8.41,0,0,0,202,27.4c.25-.23.49-.46.72-.71.08-.08.15-.17.22-.25s.25-.27.36-.41l.06-.09q.38-.48.72-1v0l.18-.32c.12-.2.24-.4.35-.6l0,0c.11-.22.22-.45.32-.68,0-.07.07-.14.1-.2v0a9.29,9.29,0,0,0,.35-.87l0-.05c0-.09.05-.18.08-.26l.18-.57,0-.12.09-.36c0-.14.07-.27.1-.41l0-.2c0-.14,0-.27.07-.41l.06-.31,0-.26c0-.15,0-.3,0-.46l0-.26c0-.09,0-.17,0-.26s0-.38,0-.57,0-.17,0-.25a1.36,1.36,0,0,1,0-.2c0-.28,0-.56-.06-.83,0-.09,0-.17,0-.26a.5.5,0,0,1,0-.12l-.09-.5-.09-.5c0-.16-.09-.32-.13-.48s-.06-.26-.1-.38,0-.07,0-.11c-.07-.22-.16-.44-.25-.67s-.08-.22-.13-.33a9.4,9.4,0,0,0-.48-1l-.05-.08-.1-.15Q204.44,11.6,204.26,11.35Z"/><path class="cls-95" d="M188.22,9.42c4.22-3.81,9.85-3.16,12.54,1.46S202.2,22.34,198,26.15s-9.85,3.16-12.54-1.46S184,13.23,188.22,9.42ZM196,22.82a7.74,7.74,0,0,0,1.67-9.19c-1.61-2.77-5-3.17-7.54-.88a7.74,7.74,0,0,0-1.67,9.19c1.62,2.77,5,3.17,7.54.88"/></g><g class="cls-89"><g class="cls-2"><path class="cls-96" d="M355.18,80.36a4.25,4.25,0,0,0-.49-4.23,5.2,5.2,0,0,0-.55-.69l0-.06s0,0,0,0a6.14,6.14,0,0,0-.45-.43h0l-.14-.12-.27-.22h0l-.32-.21-.09-.07h0l-.41-.24h0l-.13-.06-.27-.13-.06,0-.17-.07-.2-.08-.1,0-.19-.06-.16,0-.12,0-.23-.06-.13,0-.13,0-.28,0-.13,0h-.1a3,3,0,0,0-.42,0h-.7a1.9,1.9,0,0,0-.25,0l-.2,0h-.05l-.36.08-.17,0a4.36,4.36,0,0,0-.51.17l-.05,0a4.09,4.09,0,0,0-.59.3l-.11.07-.12.07c-.14.1-.26.21-.38.31l-.05,0h0c-.11.1-.21.21-.31.32a1.71,1.71,0,0,1-.11.14l-.06.09-.07.09c-.07.11-.14.22-.2.33s0,.09-.07.14l-1.52,3.18a4.53,4.53,0,0,1,.34-.55l.06-.09a3.89,3.89,0,0,1,.43-.48l.05,0a3.14,3.14,0,0,1,.5-.38l.11-.07a5.49,5.49,0,0,1,.64-.33c.16-.06.33-.12.51-.17l.17,0,.36-.08.25,0,.25,0h.26a2.09,2.09,0,0,1,.25,0H348l.42,0,.23,0,.28,0,.26.06.23,0,.28.08.19.07.3.11.17.07.33.16.12.06.45.25.09.06a3.88,3.88,0,0,1,.33.23l.28.22.15.12a4.57,4.57,0,0,1,.45.43l.08.09a5.94,5.94,0,0,1,.55.69,4.27,4.27,0,0,1,.49,4.24Z"/><path class="cls-97" d="M354.16,88l.22-.13.4-.24a.67.67,0,0,1,.11-.07l.08-.06c.23-.17.44-.34.64-.52h0s0,0,.05,0a5.51,5.51,0,0,0,.41-.43l.06-.06.09-.13a2.34,2.34,0,0,0,.24-.31l.07-.09.08-.13a2.75,2.75,0,0,0,.17-.29.91.91,0,0,0,.08-.13,1.63,1.63,0,0,0,.11-.23L358.5,82a3,3,0,0,1-.19.35c-.05.1-.11.2-.17.3l-.15.21a3.33,3.33,0,0,1-.24.32,1.19,1.19,0,0,1-.15.18,4.12,4.12,0,0,1-.41.43l-.06.06a5.38,5.38,0,0,1-.64.52l-.19.13-.4.25-.22.12c-.16.09-.32.16-.49.24l-.21.09a7.11,7.11,0,0,1-.85.29l-.29.07c-.2,0-.39.09-.59.12s-.28,0-.42.06l-.42,0-.43,0h-.42l-.32,0c-.23,0-.46,0-.69-.05l-.38,0-.47-.08a3,3,0,0,1-.43-.09l-.38-.09-.47-.14-.32-.11c-.17-.05-.33-.12-.5-.18l-.28-.12-.55-.26-.21-.1c-.25-.13-.49-.27-.73-.42l-.16-.1-.56-.38-.46-.37-.25-.2a8.27,8.27,0,0,1-.74-.71,4.59,4.59,0,0,1-.36-.41l-.19-.21c-.17-.22-.34-.45-.5-.68a7.09,7.09,0,0,1-.8-7.05l-1.53,3.19a7.1,7.1,0,0,0,.81,7c.16.24.33.46.5.68s.13.14.19.22l.29.34.07.06a10.09,10.09,0,0,0,.74.72h0l.24.19.46.37,0,0c.18.13.35.24.53.35a.91.91,0,0,0,.16.11h0c.22.13.45.27.68.39l0,0,.21.1c.15.07.3.15.45.21l.1.05.28.11.33.13.16.06.33.11.26.08.21,0,.38.1.21,0,.22,0,.46.08.22,0,.16,0,.7,0h.74l.43,0,.42,0,.33,0,.09,0c.2,0,.39-.08.59-.13l.29-.06c.28-.09.57-.18.84-.29l.08,0,.14-.07Z"/><path class="cls-98" d="M357.7,74.91c2.66,4,1.43,8.57-2.72,10.25S345.27,85,342.61,81s-1.43-8.57,2.72-10.25S355,70.94,357.7,74.91Zm-12.08,4.88a6.49,6.49,0,0,0,7.43,2.5c2.51-1,3.24-3.77,1.64-6.16a6.49,6.49,0,0,0-7.43-2.5c-2.5,1-3.24,3.77-1.64,6.16"/></g></g><g class="cls-2"><path class="cls-99" d="M17.15,189.69h0s0-.06,0-.09a.24.24,0,0,0,0-.08.19.19,0,0,0,0-.08l-.36-.93-1.43-3.65a.75.75,0,0,1,0,.26h0a1.13,1.13,0,0,1,0,.3l-1.46,4.81,1.79,4.57L17.1,190h0l0-.11a.41.41,0,0,0,0-.11.19.19,0,0,0,0-.08Z"/><path class="cls-100" d="M8.78,193.61l-7.07.83a3,3,0,0,1-.52,0l-.17,0-.3-.07-.14-.05a1,1,0,0,1-.23-.14l-.1-.07a.69.69,0,0,1-.2-.28h0l1.78,4.58a1.31,1.31,0,0,0,.2.28l.1.07a1.26,1.26,0,0,0,.23.13l.14.06a1.45,1.45,0,0,0,.3.06L3,199l.09,0H3.5l7.06-.83Z"/><path class="cls-101" d="M24.43,194.85h0s0-.06,0-.09a.29.29,0,0,0,0-.09.31.31,0,0,0,0-.08L22.6,190h0a.65.65,0,0,1,.05.27h0a.83.83,0,0,1,0,.3,1.45,1.45,0,0,1-.13.29l-.06.09-.14.19,0,0a2.08,2.08,0,0,1-.21.21l-.16.13-.17.13-.06,0-.31.19h0l-.38.17h0l-.41.13h0a3.25,3.25,0,0,1-.43.08l-7.07.84,1.79,4.57,7.06-.84.16,0,.15,0,.12,0h0l.14,0,.15-.05.1,0h0l.14-.05.14-.07.07,0,0,0,.06,0,.17-.1.09,0,.05,0,.06,0,.11-.09.16-.13,0,0,.18-.18,0,0h0a2.14,2.14,0,0,0,.13-.19.47.47,0,0,0,.06-.09h0a1.29,1.29,0,0,0,.09-.16l0-.13h0l0-.12s0-.06,0-.1v-.08Z"/><path class="cls-102" d="M13,193.11l-1.45,4.81a1.94,1.94,0,0,1-.13.3l0,.05a1.24,1.24,0,0,1-.17.23l0,0a1.52,1.52,0,0,1-.22.22l-.16.13-.17.13-.05,0a3.37,3.37,0,0,1-.32.19h0a2.59,2.59,0,0,1-.38.17h0a2.8,2.8,0,0,1-.41.13h0a3.1,3.1,0,0,1-.42.08,3.17,3.17,0,0,1-.53,0l-.17,0-.3-.07-.15-.05-.23-.14a.31.31,0,0,1-.09-.07.69.69,0,0,1-.2-.28h0l1.78,4.57a.8.8,0,0,0,.2.29l.09.07a1.36,1.36,0,0,0,.24.13l.14.06a1.33,1.33,0,0,0,.3.06l.17,0,.09,0h.44l.15,0a.9.9,0,0,0,.16,0l.11,0h0l.14,0,.14,0,.1,0h0l.14-.06.15-.07.06,0,0,0,.06,0,.17-.09.09-.06.06,0,.05,0,.12-.1.16-.13,0,0,.18-.18,0,0h0c.06-.07.11-.15.16-.22l0-.06h0a1.19,1.19,0,0,0,.08-.16,1.12,1.12,0,0,0,.05-.13l1.46-4.82Z"/><path class="cls-103" d="M13.65,184.23c1.16-.14,1.91.39,1.67,1.19l-1.46,4.81,7.07-.84c1.16-.13,1.91.4,1.67,1.2a3.12,3.12,0,0,1-2.54,1.68l-7.07.84-1.45,4.81A3.12,3.12,0,0,1,9,199.61c-1.17.14-1.92-.39-1.68-1.19l1.46-4.81-7.07.83c-1.16.14-1.9-.39-1.67-1.18a3.1,3.1,0,0,1,2.54-1.69l7.07-.84,1.45-4.82A3.13,3.13,0,0,1,13.65,184.23Z"/></g><g class="cls-2"><path class="cls-104" d="M44.52,290.81h0l0-.06,0-.05a.25.25,0,0,1,0-.07l.21-.72.84-2.85a.38.38,0,0,1-.09.18h0a.81.81,0,0,1-.16.16l-3.12,2.21-1,3.58L44.35,291h0a.18.18,0,0,0,.07-.05l0-.05,0-.05Z"/><path class="cls-105" d="M37.67,289.28,33,286.5a2.79,2.79,0,0,1-.31-.24l-.1-.1-.15-.17-.06-.1a.89.89,0,0,1-.07-.19l0-.09a.75.75,0,0,1,0-.26h0l-1,3.58a.46.46,0,0,0,0,.26.31.31,0,0,0,0,.08.64.64,0,0,0,.08.19.53.53,0,0,0,.06.1,1.19,1.19,0,0,0,.15.18l.09.09,0,.05.14.11.12.07h0l4.63,2.78Z"/><path class="cls-106" d="M46.49,297.3h0l0-.06,0-.06a.14.14,0,0,1,0-.06l1.05-3.57h0a.69.69,0,0,1-.1.19h0a.66.66,0,0,1-.17.16,1,1,0,0,1-.21.11l-.08,0-.17.05h0a.85.85,0,0,1-.23,0h-.36l-.28,0h0l-.3-.08h0l-.3-.12h0a1.59,1.59,0,0,1-.29-.15l-4.64-2.78-1,3.57L44,297.29l.1.06.11.06.08,0h0l.1.05.1,0,.08,0h0l.11,0,.12,0H45l.15,0h.49l.18,0h0l.17,0,.07,0h0l.12-.06.09-.06h0l.07,0,0-.06a.1.1,0,0,0,0-.05Z"/><path class="cls-107" d="M40.43,290.94l-3.11,2.21a1.05,1.05,0,0,1-.21.12h0a1.29,1.29,0,0,1-.21.06h0l-.23,0h-.37l-.28,0h0l-.3-.07h0l-.3-.11h0A2,2,0,0,1,35,293a2.62,2.62,0,0,1-.32-.23l-.09-.1a1.19,1.19,0,0,1-.15-.18l-.06-.1a.64.64,0,0,1-.08-.19.24.24,0,0,1,0-.08.46.46,0,0,1,0-.26h0l-1.06,3.58a.75.75,0,0,0,0,.26l0,.09a.89.89,0,0,0,.07.19l.06.1.15.18.1.09,0,.05.14.1a.36.36,0,0,0,.12.08h0l.1.06.11.05.08,0h0l.1,0,.11,0,.08,0h0l.11,0,.12,0H35l.14,0h.49l.19,0h0l.2-.07h0l.13-.06.09-.06,3.11-2.21Z"/><path class="cls-108" d="M45,285.91c.77.46,1,1.13.46,1.49l-3.12,2.21,4.64,2.79c.76.45,1,1.12.44,1.49a2.35,2.35,0,0,1-2.3-.17l-4.64-2.78-3.11,2.21A2.34,2.34,0,0,1,35,293c-.76-.45-1-1.12-.45-1.49l3.11-2.21L33,286.5c-.76-.46-1-1.13-.45-1.49a2.36,2.36,0,0,1,2.31.16L39.53,288l3.11-2.21A2.39,2.39,0,0,1,45,285.91Z"/></g><g class="cls-89"><g class="cls-2"><path class="cls-109" d="M326.36,296.45h0l.06-.06.06-.07.05-.07.51-.85,2-3.36a.79.79,0,0,1-.17.2h0a.93.93,0,0,1-.26.15l-4.7,1.8-2.52,4.21,4.7-1.8h0l.1-.05.09-.05.07-.05Z"/><path class="cls-110" d="M318.14,292.23l-5-5.07a2.4,2.4,0,0,1-.32-.41.6.6,0,0,1-.09-.15,1.11,1.11,0,0,1-.13-.27.88.88,0,0,1-.05-.15,1.22,1.22,0,0,1,0-.26s0-.09,0-.12a1.15,1.15,0,0,1,.1-.33h0l-2.52,4.21a.75.75,0,0,0-.1.33v.12a.82.82,0,0,0,0,.26c0,.05,0,.1,0,.15s.08.18.13.27l.09.15a.56.56,0,0,0,.05.08l.14.18.13.14h0l5,5.07Z"/><path class="cls-111" d="M326.73,305.37h0l.07-.06.05-.07a.18.18,0,0,0,.05-.07l2.53-4.21h0a1.12,1.12,0,0,1-.18.2h0a1.17,1.17,0,0,1-.27.15,1.09,1.09,0,0,1-.31.08h-.11a1,1,0,0,1-.24,0h0l-.3,0-.2-.05-.21-.05-.06,0a2.37,2.37,0,0,1-.34-.13l0,0-.36-.19h0l-.34-.25h0c-.12-.09-.22-.19-.33-.29l-5-5.08-2.52,4.21,5,5.08a1.14,1.14,0,0,1,.11.11l.12.1.09.08h0l0,0,.12.09.12.08.09.06h0l.14.08.14.07.06,0,0,0,.05,0,.18.07.11,0,.06,0,.06,0,.14,0,.21.05h0a2,2,0,0,0,.24,0h0a1,1,0,0,0,.24,0h.11l.18,0,.13-.05h0l.1,0,.09-.06a.18.18,0,0,0,.07-.05Z"/><path class="cls-112" d="M321.11,295.26l-4.69,1.8-.32.08h-.38l-.3,0-.2-.05L315,297l-.06,0a2.44,2.44,0,0,1-.34-.14h0a3.24,3.24,0,0,1-.36-.2h0a2.62,2.62,0,0,1-.34-.24h0a2.28,2.28,0,0,1-.33-.29,2.8,2.8,0,0,1-.32-.4.89.89,0,0,1-.09-.16,1.11,1.11,0,0,1-.13-.27.88.88,0,0,1-.05-.15,2.51,2.51,0,0,1,0-.27v-.12a.79.79,0,0,1,.1-.33h0l-2.52,4.21a.75.75,0,0,0-.1.33.48.48,0,0,0,0,.12,1.24,1.24,0,0,0,0,.27c0,.05,0,.1.05.15s.08.18.13.27l.09.16.05.07.14.18a.86.86,0,0,0,.13.14h0a1.14,1.14,0,0,0,.11.11l.12.11.09.07h0l.12.09.12.09.09.05h0l0,0,.13.07.15.08.06,0h0l.05,0,.18.08.11,0,.06,0,.06,0,.14,0,.21.05h0l.26,0h.38l.18,0,.13,0,4.7-1.8Z"/><path class="cls-113" d="M328.53,290.34c.82.84.86,1.76.09,2.05l-4.7,1.8,5,5.07c.82.84.86,1.76.08,2.05a3.11,3.11,0,0,1-2.89-1l-5-5.08-4.69,1.8a3.1,3.1,0,0,1-2.9-1c-.82-.83-.86-1.75-.08-2.05l4.7-1.8-5-5.07c-.82-.83-.85-1.75-.08-2a3.08,3.08,0,0,1,2.89,1l5,5.07,4.7-1.8A3.13,3.13,0,0,1,328.53,290.34Z"/></g></g><g class="cls-2"><path class="cls-114" d="M101.14,80.46a.28.28,0,0,0,0-.09v0a.09.09,0,0,1,0,0,.94.94,0,0,0,0-.16s0-.09,0-.13l-.94-2.1a1.33,1.33,0,0,1,.1.34v0a1.93,1.93,0,0,1,0,.34.17.17,0,0,1,0,.07,1,1,0,0,1-.07.29l0,.1a2.1,2.1,0,0,1-.18.37L96,85.65a3,3,0,0,1-.26.34.46.46,0,0,1-.07.07,1.48,1.48,0,0,1-.26.24l0,0a2.71,2.71,0,0,1-.35.24l0,0a2.49,2.49,0,0,1-.4.2h0l-.44.14h0l-.39.07h-.09a1.5,1.5,0,0,1-.3,0h-.14a1.84,1.84,0,0,1-.42-.07l-6.9-1.83a1.55,1.55,0,0,1-1.09-.86l.93,2.1a1.58,1.58,0,0,0,1.09.86l6.9,1.83a2,2,0,0,0,.42.07h.14a1.92,1.92,0,0,0,.24,0h.15l.16,0,.24,0h0l.22-.07.21-.07h0l.17-.08.19-.1,0,0,0,0,.12-.07.19-.13,0,0,0,0,.11-.09.14-.15a.23.23,0,0,0,.07-.07l0,0a3.71,3.71,0,0,0,.23-.32l3.87-6.21a1.57,1.57,0,0,0,.18-.37.42.42,0,0,0,0-.1s0-.08,0-.12a1,1,0,0,0,0-.17s0,0,0-.08v0A.74.74,0,0,0,101.14,80.46Z"/><path class="cls-115" d="M98,78.82a.1.1,0,0,0-.08-.07L91,76.92h-.2l0,0h0s0,0,0,0l-3.88,6.21,0,0h0v0h0l.93,2.1a.11.11,0,0,1,0-.06h0s0,0,0-.06l3.87-6.21a.2.2,0,0,1,.11-.09h0A.23.23,0,0,1,92,79l6.9,1.83a.13.13,0,0,1,.09.07Z"/><path class="cls-116" d="M99,77a1.51,1.51,0,0,1,.91,2.41L96,85.65A3.1,3.1,0,0,1,92.82,87l-6.9-1.83a1.5,1.5,0,0,1-.91-2.4l3.87-6.22a3.13,3.13,0,0,1,3.23-1.31Zm-4.86,8.12L98,78.93a.11.11,0,0,0-.07-.18L91,76.92a.24.24,0,0,0-.25.1l-3.88,6.21a.12.12,0,0,0,.08.19l6.89,1.83a.26.26,0,0,0,.26-.1"/></g><g class="cls-2"><path class="cls-117" d="M85.17,157.63a1.13,1.13,0,0,1,.1-.13l0-.05.06-.06a2.13,2.13,0,0,0,.16-.25l.11-.22,1.62-3.71a2.93,2.93,0,0,1-.33.53l0,0a2.78,2.78,0,0,1-.43.41l-.12.08a3.25,3.25,0,0,1-.45.25l-.18.08a4.5,4.5,0,0,1-.68.2l-12.69,2.36a3.84,3.84,0,0,1-.76.07h-.17a4.4,4.4,0,0,1-.62,0l-.11,0A4.32,4.32,0,0,1,70,157l-.08,0a6.46,6.46,0,0,1-.73-.28h0a5.42,5.42,0,0,1-.71-.4h0c-.19-.13-.37-.28-.55-.43l-.12-.11a4.27,4.27,0,0,1-.36-.38l-.17-.19a4.25,4.25,0,0,1-.41-.63L61,143.39a2.77,2.77,0,0,1-.18-2.44l-1.62,3.72a2.78,2.78,0,0,0,.18,2.43l5.83,11.15a5.23,5.23,0,0,0,.41.63l.17.19c.09.1.18.21.28.31l.08.07.12.11.21.18c.11.09.23.17.35.25h0a2.39,2.39,0,0,0,.34.21,2.79,2.79,0,0,0,.34.18h0l.31.13.35.13.07,0,.08,0,.22.07a3,3,0,0,0,.41.09h.08l.11,0,.26,0H70a4,4,0,0,0,.69-.07l12.69-2.36a3.58,3.58,0,0,0,.68-.2l.18-.08.21-.09.24-.16.12-.08,0,0Z"/><path class="cls-118" d="M83.59,151.62a.24.24,0,0,0,0-.2l-5.83-11.15-.07-.09,0,0,0,0h0l0,0h-.25l-12.68,2.35-.09,0,0,0h0a0,0,0,0,0,0,0h0v0l-1.62,3.71a.18.18,0,0,1,.07-.08h0a.18.18,0,0,1,.11,0l12.68-2.36a.36.36,0,0,1,.25,0h0a.33.33,0,0,1,.18.17L82,155.13a.24.24,0,0,1,0,.2Z"/><path class="cls-119" d="M87.08,150.77a2.66,2.66,0,0,1-2,4l-12.69,2.36a5.48,5.48,0,0,1-5.54-2.63L61,143.39a2.66,2.66,0,0,1,2.05-4L75.7,137a5.48,5.48,0,0,1,5.54,2.63ZM70.73,154.1l12.69-2.36a.21.21,0,0,0,.15-.32l-5.83-11.15a.43.43,0,0,0-.43-.2l-12.68,2.35a.22.22,0,0,0-.17.32l5.84,11.15a.42.42,0,0,0,.43.21"/></g><g class="cls-2"><path class="cls-120" d="M317.48,20.71l.11-.13,0,0,.05-.06a1.32,1.32,0,0,0,.16-.25A1.51,1.51,0,0,0,318,20l1.62-3.71a2.41,2.41,0,0,1-.32.53l-.05.05a2.1,2.1,0,0,1-.43.41l-.11.08a3.25,3.25,0,0,1-.45.25l-.18.08a4.31,4.31,0,0,1-.69.2l-12.68,2.36a3.91,3.91,0,0,1-.76.07h-.17a4.3,4.3,0,0,1-.62,0l-.11,0a4.69,4.69,0,0,1-.72-.17l-.07,0a5.8,5.8,0,0,1-.73-.28h0a6.3,6.3,0,0,1-.72-.4h0a4.75,4.75,0,0,1-.55-.43l-.13-.11c-.13-.12-.24-.25-.36-.38s-.11-.13-.16-.19a3.58,3.58,0,0,1-.41-.63L293.29,6.47A2.79,2.79,0,0,1,293.1,4l-1.61,3.71a2.75,2.75,0,0,0,.18,2.43l5.83,11.15a3.58,3.58,0,0,0,.41.63c0,.06.11.12.16.19s.18.21.29.31a.27.27,0,0,0,.08.07l.12.11.21.18.34.25h0a2.5,2.5,0,0,0,.35.21,2.79,2.79,0,0,0,.34.18h0l.3.13.36.13.07,0,.07,0,.23.06a2.88,2.88,0,0,0,.4.09h.09l.11,0a2.3,2.3,0,0,0,.26,0l.36,0h.24A4,4,0,0,0,303,24l12.68-2.36a3.48,3.48,0,0,0,.69-.2l.18-.08a1.76,1.76,0,0,0,.2-.09l.25-.16.11-.08.06,0A2.16,2.16,0,0,0,317.48,20.71Z"/><path class="cls-121" d="M315.9,14.7a.21.21,0,0,0,0-.2L310.06,3.36a.86.86,0,0,0-.07-.1l0,0,0,0h-.29L296.94,5.51l-.08,0,0,0h0l0,0h0v0l-1.62,3.71a.16.16,0,0,1,.06-.08h0a.18.18,0,0,1,.1,0L308,6.86a.37.37,0,0,1,.25,0h0a.37.37,0,0,1,.18.17l5.83,11.14a.24.24,0,0,1,0,.2Z"/><path class="cls-122" d="M319.39,13.85a2.65,2.65,0,0,1-2.05,4l-12.68,2.36a5.48,5.48,0,0,1-5.54-2.63L293.29,6.47a2.65,2.65,0,0,1,2-4L308,.07a5.48,5.48,0,0,1,5.54,2.63Zm-16.34,3.33,12.68-2.36a.21.21,0,0,0,.16-.32L310.06,3.36a.42.42,0,0,0-.43-.21L296.94,5.51a.21.21,0,0,0-.16.31L302.61,17a.43.43,0,0,0,.44.21"/></g></g></g></g></svg>