<svg width="326" height="106" viewBox="0 0 326 106" fill="none" xmlns="http://www.w3.org/2000/svg">
<path d="M39.8851 85.5C61.1247 85.5 80.9059 72.8802 80.9059 41.3281C80.9059 13.5417 66.0986 0.3125 42.0726 0.3125H11.4893V85.5H39.8851ZM23.6247 2.13021H36.4893C58.5778 2.01042 68.7705 13.901 68.7705 41.3281C68.7705 74.5781 55.1768 83.6823 34.4268 83.6823H23.6247V2.13021Z" fill="#278CA2"/>
<path d="M102.743 85.5L117.79 47.8802H154.071L156.743 54.6771C161.233 66.0833 162.691 76.1563 164.144 85.5H170.821L136.722 0.3125H124.587L90.6077 85.5H102.743ZM135.873 2.375L153.347 46.1823H118.394L135.873 2.375Z" fill="#278CA2"/>
<path d="M229.185 51.1563C227.727 48.125 225.789 46.4271 222.268 45.0885C235.737 42.7865 242.289 31.5 242.289 21.3073C242.289 10.5052 234.524 0.3125 217.169 0.3125H182.341V85.5H194.477V53.9479C199.94 48.974 205.883 46.1823 209.524 46.1823C212.56 46.1823 214.742 47.7604 216.081 50.4323L233.919 85.5H246.055L229.185 51.1563ZM214.867 43.6354C207.826 43.2708 200.544 47.151 194.477 52.25V2.01042H209.649C224.331 2.01042 231.367 12.0833 231.367 23.3698C231.367 33.9271 225.3 44.1198 214.867 43.6354Z" fill="#278CA2"/>
<path d="M271.288 85.5V48.6094H289.251C307.939 48.0052 321.288 38.901 321.288 24.099C321.288 12.0833 313.157 0.3125 290.829 0.3125H259.152V85.5H271.288ZM271.288 2.01042H284.397C303.204 2.01042 309.881 13.5417 309.881 24.3385C309.881 35.3802 303.084 46.9115 283.668 46.9115H271.288V2.01042Z" fill="#278CA2"/>
<path d="M2.00505 98.7219H0.916504V105.253H2.00505C3.63005 105.253 5.82275 104.779 5.82275 101.988C5.82275 99.0813 3.59359 98.7219 2.00505 98.7219ZM2.00505 104.191V99.7844C2.00505 99.7844 4.72379 99.373 4.72379 101.988C4.72379 104.56 2.00505 104.191 2.00505 104.191Z" fill="#278CA2"/>
<path d="M9.2758 99.8105H12.5414V98.7219H8.18726V105.253H12.5414V104.159H9.2758V102.529H11.9945V101.446H9.2758V99.8105Z" fill="#278CA2"/>
<path d="M17.8195 104.253C16.6112 104.253 15.6528 103.389 15.6528 101.988C15.6528 100.67 16.4757 99.7167 17.8195 99.7167C18.4132 99.7167 18.9653 99.9615 19.356 100.352L20.1216 99.5865C19.533 98.9928 18.7205 98.6282 17.8195 98.6282C15.9028 98.6282 14.5435 100.019 14.5435 101.988C14.5435 104.04 16.0174 105.347 17.8195 105.347C18.7205 105.347 19.533 104.982 20.1216 104.394L19.356 103.618C18.9653 104.014 18.4132 104.253 17.8195 104.253Z" fill="#278CA2"/>
<path d="M23.4255 99.8105H26.6911V98.7219H22.3369V105.253H26.6911V104.159H23.4255V102.529H26.1442V101.446H23.4255V99.8105Z" fill="#278CA2"/>
<path d="M34.3547 105.253V98.7219H33.2714V103.368L30.0162 98.7219H28.9172V105.253H30.0058V100.607L33.2558 105.253H34.3547Z" fill="#278CA2"/>
<path d="M40.2109 99.7167V98.7219H36.3828V99.7167H37.7526V105.253H38.8359V99.7167H40.2109Z" fill="#278CA2"/>
<path d="M45.63 105.253H46.9113L45.1353 102.415C45.7707 102.238 46.5728 101.779 46.5728 100.623C46.5728 98.7219 44.3905 98.7219 44.3905 98.7219H42.2134V99.8105L43.2498 101.446H42.2134V105.253H43.3071V102.529H43.9321L45.63 105.253ZM44.5311 101.435L43.5103 99.8105H44.3905C44.3905 99.8105 45.4842 99.8105 45.4842 100.623C45.4842 101.269 44.8175 101.409 44.5311 101.435Z" fill="#278CA2"/>
<path d="M52.0229 104.498L52.3146 105.253H53.4917L50.8771 98.5344L48.2729 105.253H49.45L49.7313 104.498H52.0229ZM50.0854 103.555L50.8771 101.284L51.6688 103.555H50.0854Z" fill="#278CA2"/>
<path d="M56.4106 104.159V98.7219H55.322V105.253H58.8272V104.159H56.4106Z" fill="#278CA2"/>
<path d="M62.5173 99.7167H63.2465V98.7219H60.6944V99.7167H61.4236V104.253H60.658V105.253H63.283V104.253H62.5173V99.7167Z" fill="#278CA2"/>
<path d="M68.8136 105.253V104.159H66.6313L68.8084 98.7219H65.0063V99.8105H67.1991L65.0168 105.253H68.8136Z" fill="#278CA2"/>
<path d="M72.0629 99.8105H75.3285V98.7219H70.9744V105.253H75.3285V104.159H72.0629V102.529H74.7817V101.446H72.0629V99.8105Z" fill="#278CA2"/>
<path d="M78.6432 98.7219H77.5547V105.253H78.6432C80.2682 105.253 82.4609 104.779 82.4609 101.988C82.4609 99.0813 80.2318 98.7219 78.6432 98.7219ZM78.6432 104.191V99.7844C78.6432 99.7844 81.362 99.373 81.362 101.988C81.362 104.56 78.6432 104.191 78.6432 104.191Z" fill="#278CA2"/>
<path d="M92.1479 104.498L92.4396 105.253H93.6167L91.0021 98.5344L88.3979 105.253H89.575L89.8563 104.498H92.1479ZM90.2104 103.555L91.0021 101.284L91.7938 103.555H90.2104Z" fill="#278CA2"/>
<path d="M100.88 98.7219H95.4473V102.628C95.4473 102.696 95.4525 103.321 95.7702 103.956C96.2181 104.852 97.0671 105.347 98.1608 105.347C99.2546 105.347 100.104 104.852 100.551 103.956C100.869 103.321 100.88 102.696 100.88 102.628V98.7219ZM99.5618 103.498C99.3014 104.014 98.8431 104.253 98.1608 104.253C97.4889 104.253 97.0306 104.014 96.7598 103.498C96.5358 103.076 96.5254 102.628 96.5254 102.628V99.8105H99.7962V102.623C99.7962 102.628 99.7858 103.076 99.5618 103.498Z" fill="#278CA2"/>
<path d="M109.238 101.54H107.055V102.576H108.149V103.519C107.748 103.972 107.17 104.253 106.514 104.253C105.311 104.253 104.342 103.581 104.342 101.988C104.342 100.56 105.311 99.7167 106.514 99.7167C107.113 99.7167 107.665 99.9615 108.055 100.352L108.821 99.5865C108.232 98.9928 107.42 98.6282 106.514 98.6282C104.712 98.6282 103.248 100.045 103.248 101.988C103.248 104.123 104.618 105.347 106.373 105.347C107.149 105.347 107.701 105.159 108.232 104.665L108.29 105.279H109.238V101.54Z" fill="#278CA2"/>
<path d="M118.826 105.253V98.7115H117.717L115.336 103.795L112.852 98.7115H111.743V105.253H112.831V101.154L114.831 105.253H115.857L117.732 101.238V105.253H118.826Z" fill="#278CA2"/>
<path d="M122.483 99.8105H125.749V98.7219H121.395V105.253H125.749V104.159H122.483V102.529H125.202V101.446H122.483V99.8105Z" fill="#278CA2"/>
<path d="M133.412 105.253V98.7219H132.329V103.368L129.074 98.7219H127.975V105.253H129.063V100.607L132.313 105.253H133.412Z" fill="#278CA2"/>
<path d="M139.268 99.7167V98.7219H135.44V99.7167H136.81V105.253H137.893V99.7167H139.268Z" fill="#278CA2"/>
<path d="M142.354 99.8105H145.62V98.7219H141.266V105.253H145.62V104.159H142.354V102.529H145.073V101.446H142.354V99.8105Z" fill="#278CA2"/>
<path d="M148.934 98.7219H147.846V105.253H148.934C150.559 105.253 152.752 104.779 152.752 101.988C152.752 99.0813 150.523 98.7219 148.934 98.7219ZM148.934 104.191V99.7844C148.934 99.7844 151.653 99.373 151.653 101.988C151.653 104.56 148.934 104.191 148.934 104.191Z" fill="#278CA2"/>
<path d="M162.851 105.253H164.132L162.356 102.415C162.992 102.238 163.794 101.779 163.794 100.623C163.794 98.7219 161.611 98.7219 161.611 98.7219H159.434V99.8105L160.471 101.446H159.434V105.253H160.528V102.529H161.153L162.851 105.253ZM161.752 101.435L160.731 99.8105H161.611C161.611 99.8105 162.705 99.8105 162.705 100.623C162.705 101.269 162.038 101.409 161.752 101.435Z" fill="#278CA2"/>
<path d="M167.322 99.8105H170.587V98.7219H166.233V105.253H170.587V104.159H167.322V102.529H170.04V101.446H167.322V99.8105Z" fill="#278CA2"/>
<path d="M175.824 104.498L176.115 105.253H177.292L174.678 98.5344L172.074 105.253H173.251L173.532 104.498H175.824ZM173.886 103.555L174.678 101.284L175.47 103.555H173.886Z" fill="#278CA2"/>
<path d="M180.212 104.159V98.7219H179.123V105.253H182.628V104.159H180.212Z" fill="#278CA2"/>
<path d="M186.318 99.7167H187.047V98.7219H184.495V99.7167H185.224V104.253H184.459V105.253H187.084V104.253H186.318V99.7167Z" fill="#278CA2"/>
<path d="M192.526 99.7167V98.7219H188.698V99.7167H190.068V105.253H191.151V99.7167H192.526Z" fill="#278CA2"/>
<path d="M199.784 98.7219H198.451L196.789 101.055L195.117 98.7219H193.784L196.237 102.165V105.253H197.331V102.165L199.784 98.7219Z" fill="#278CA2"/>
<path d="M208.12 98.7219H205.948V99.8105L206.979 101.446H205.948V105.253H207.036V102.529H208.12C208.12 102.529 210.297 102.529 210.297 100.623C210.297 98.7219 208.12 98.7219 208.12 98.7219ZM208.26 101.435L207.245 99.8105H208.12C208.12 99.8105 209.213 99.8105 209.213 100.623C209.213 101.258 208.552 101.399 208.26 101.435Z" fill="#278CA2"/>
<path d="M215.903 105.253H217.184L215.408 102.415C216.044 102.238 216.846 101.779 216.846 100.623C216.846 98.7219 214.664 98.7219 214.664 98.7219H212.487V99.8105L213.523 101.446H212.487V105.253H213.58V102.529H214.205L215.903 105.253ZM214.804 101.435L213.783 99.8105H214.664C214.664 99.8105 215.757 99.8105 215.757 100.623C215.757 101.269 215.091 101.409 214.804 101.435Z" fill="#278CA2"/>
<path d="M221.504 103.482C222.838 103.482 223.931 102.389 223.931 101.055C223.931 99.7167 222.838 98.6282 221.504 98.6282C220.171 98.6282 219.077 99.7167 219.077 101.055C219.077 102.389 220.171 103.482 221.504 103.482ZM221.504 99.7115C222.249 99.7115 222.848 100.305 222.848 101.055C222.848 101.8 222.249 102.399 221.504 102.399C220.759 102.399 220.16 101.8 220.16 101.055C220.16 100.305 220.759 99.7115 221.504 99.7115ZM223.634 105.253V104.17H219.322V105.253H223.634Z" fill="#278CA2"/>
<path d="M228.645 98.7115H226.379V99.7115H227.551V103.347C227.551 103.347 227.551 104.159 226.733 104.159H225.91V105.253H226.733C226.733 105.253 228.645 105.253 228.645 103.347V98.7115Z" fill="#278CA2"/>
<path d="M232.302 99.8105H235.568V98.7219H231.214V105.253H235.568V104.159H232.302V102.529H235.021V101.446H232.302V99.8105Z" fill="#278CA2"/>
<path d="M240.846 104.253C239.638 104.253 238.679 103.389 238.679 101.988C238.679 100.67 239.502 99.7167 240.846 99.7167C241.44 99.7167 241.992 99.9615 242.383 100.352L243.148 99.5865C242.56 98.9928 241.747 98.6282 240.846 98.6282C238.929 98.6282 237.57 100.019 237.57 101.988C237.57 104.04 239.044 105.347 240.846 105.347C241.747 105.347 242.56 104.982 243.148 104.394L242.383 103.618C241.992 104.014 241.44 104.253 240.846 104.253Z" fill="#278CA2"/>
<path d="M248.64 99.7167V98.7219H244.812V99.7167H246.181V105.253H247.265V99.7167H248.64Z" fill="#278CA2"/>
<path d="M252.064 99.7167H252.793V98.7219H250.241V99.7167H250.97V104.253H250.205V105.253H252.83V104.253H252.064V99.7167Z" fill="#278CA2"/>
<path d="M257.215 103.482C258.548 103.482 259.642 102.389 259.642 101.055C259.642 99.7167 258.548 98.6282 257.215 98.6282C255.881 98.6282 254.788 99.7167 254.788 101.055C254.788 102.389 255.881 103.482 257.215 103.482ZM257.215 99.7115C257.959 99.7115 258.558 100.305 258.558 101.055C258.558 101.8 257.959 102.399 257.215 102.399C256.47 102.399 255.871 101.8 255.871 101.055C255.871 100.305 256.47 99.7115 257.215 99.7115ZM259.345 105.253V104.17H255.032V105.253H259.345Z" fill="#278CA2"/>
<path d="M267.48 105.253V98.7219H266.397V103.368L263.142 98.7219H262.043V105.253H263.131V100.607L266.381 105.253H267.48Z" fill="#278CA2"/>
<path d="M276.544 98.7219H274.372V99.8105L275.404 101.446H274.372V105.253H275.461V102.529H276.544C276.544 102.529 278.721 102.529 278.721 100.623C278.721 98.7219 276.544 98.7219 276.544 98.7219ZM276.685 101.435L275.669 99.8105H276.544C276.544 99.8105 277.638 99.8105 277.638 100.623C277.638 101.258 276.976 101.399 276.685 101.435Z" fill="#278CA2"/>
<path d="M281.995 104.159V98.7219H280.906V105.253H284.411V104.159H281.995Z" fill="#278CA2"/>
<path d="M289.685 104.498L289.976 105.253H291.153L288.539 98.5344L285.935 105.253H287.112L287.393 104.498H289.685ZM287.747 103.555L288.539 101.284L289.33 103.555H287.747Z" fill="#278CA2"/>
<path d="M296.26 99.7167V98.7219H292.432V99.7167H293.801V105.253H294.885V99.7167H296.26Z" fill="#278CA2"/>
<path d="M299.346 99.8105H302.611V98.7219H298.257V105.253H299.346V102.529H302.064V101.446H299.346V99.8105Z" fill="#278CA2"/>
<path d="M306.981 103.482C308.315 103.482 309.408 102.389 309.408 101.055C309.408 99.7167 308.315 98.6282 306.981 98.6282C305.648 98.6282 304.554 99.7167 304.554 101.055C304.554 102.389 305.648 103.482 306.981 103.482ZM306.981 99.7115C307.726 99.7115 308.325 100.305 308.325 101.055C308.325 101.8 307.726 102.399 306.981 102.399C306.236 102.399 305.638 101.8 305.638 101.055C305.638 100.305 306.236 99.7115 306.981 99.7115ZM309.111 105.253V104.17H304.799V105.253H309.111Z" fill="#278CA2"/>
<path d="M315.231 105.253H316.513L314.737 102.415C315.372 102.238 316.174 101.779 316.174 100.623C316.174 98.7219 313.992 98.7219 313.992 98.7219H311.815V99.8105L312.851 101.446H311.815V105.253H312.908V102.529H313.533L315.231 105.253ZM314.132 101.435L313.112 99.8105H313.992C313.992 99.8105 315.086 99.8105 315.086 100.623C315.086 101.269 314.419 101.409 314.132 101.435Z" fill="#278CA2"/>
<path d="M325.687 105.253V98.7115H324.577L322.197 103.795L319.713 98.7115H318.603V105.253H319.692V101.154L321.692 105.253H322.718L324.593 101.238V105.253H325.687Z" fill="#278CA2"/>
</svg>
